<?xml version="1.0" encoding="UTF-8" standalone="no"?>
<svg
   xmlns:dc="http://purl.org/dc/elements/1.1/"
   xmlns:cc="http://creativecommons.org/ns#"
   xmlns:rdf="http://www.w3.org/1999/02/22-rdf-syntax-ns#"
   xmlns:svg="http://www.w3.org/2000/svg"
   xmlns="http://www.w3.org/2000/svg"
   width="529.16669mm"
   height="118.28013mm"
   viewBox="0 0 2000.0001 447.043"
   version="1.1"
   id="svg8">
  <defs
     id="defs2">
    <rect
       id="rect879"
       height="125.25892"
       width="206.07112"
       y="1795.5133"
       x="517.19812" />
    <style
       id="style2">.cls-1{fill:#fff;}</style>
    <style
       id="style2-6">.cls-1{fill:#fff;}</style>
  </defs>
  <metadata
     id="metadata5">
    <rdf:RDF>
      <cc:Work
         rdf:about="">
        <dc:format>image/svg+xml</dc:format>
        <dc:type
           rdf:resource="http://purl.org/dc/dcmitype/StillImage" />
        <dc:title></dc:title>
      </cc:Work>
    </rdf:RDF>
  </metadata>
  <g
     id="layer1"
     transform="translate(-304.37531,-1206.9419)">
    <text
       style="font-style:normal;font-weight:normal;font-size:40px;line-height:1.25;font-family:sans-serif;shape-inside:url(#rect879);fill:#000000;fill-opacity:1;stroke:none"
       id="text877"
       xml:space="preserve" />
    <g
       style="fill:#ffffff"
       id="g1267"
       transform="matrix(0.57653835,0,0,0.57653835,128.89127,511.0936)">
      <path
         id="path937"
         style="font-style:normal;font-variant:normal;font-weight:normal;font-stretch:normal;font-size:574.109px;line-height:1.25;font-family:'Fjalla One';-inkscape-font-specification:'Fjalla One';letter-spacing:-0.01px;opacity:1;fill:#ffffff;fill-opacity:1;stroke:none;stroke-width:14.3527;stop-opacity:1"
         d="m 391.22421,1308.4242 h 58.8686 l 116.05524,320.4134 h 1.68196 q -0.84098,-11.2131 -2.24261,-24.9491 -1.40164,-13.736 -2.52294,-31.1162 -1.12131,-17.6606 -1.96229,-39.8064 -0.84098,-22.1458 -0.84098,-49.8982 v -174.6435 h 65.03579 v 478.798 H 565.86772 L 450.37314,1475.2186 h -2.24262 q 0.84098,12.6147 2.24262,27.472 1.40163,14.577 2.52294,34.4802 1.1213,19.9032 1.96228,46.5342 0.84098,26.3507 0.84098,62.7932 v 140.724 h -64.47513 z" />
      <path
         style="font-style:normal;font-variant:normal;font-weight:normal;font-stretch:normal;font-size:574.109px;line-height:1.25;font-family:'Fjalla One';-inkscape-font-specification:'Fjalla One';letter-spacing:-0.01px;opacity:1;fill:#ffffff;fill-opacity:1;stroke:none;stroke-width:14.3527;stop-opacity:1"
         d="m 704.05875,1401.2124 h 70.92264 v 386.0098 h -70.92264 z"
         id="path968" />
      <path
         id="path941"
         style="font-style:normal;font-variant:normal;font-weight:normal;font-stretch:normal;font-size:574.109px;line-height:1.25;font-family:'Fjalla One';-inkscape-font-specification:'Fjalla One';letter-spacing:-0.01px;opacity:1;fill:#ffffff;fill-opacity:1;stroke:none;stroke-width:14.3527;stop-opacity:1"
         d="m 906.44462,1813.5729 q 0,24.949 9.25078,35.3211 9.25078,10.3721 28.59332,10.3721 7.84915,0 15.13764,-2.5229 7.28849,-2.2426 12.6147,-8.6901 5.60653,-6.1672 8.97045,-17.3803 3.36392,-11.2131 3.36392,-28.8736 v -60.8309 q -9.5311,12.3343 -24.66874,21.3048 -14.85732,8.6901 -37.00312,8.6901 -6.44752,0 -15.13764,-1.1213 -8.69013,-1.4016 -17.94091,-5.8868 -9.25078,-4.4853 -18.22123,-13.4557 -8.97045,-9.2508 -15.97862,-24.6688 -7.00817,-15.4179 -11.49339,-38.4047 -4.2049,-23.2671 -4.2049,-56.0654 v -101.4782 q 0,-31.3966 4.2049,-53.2621 4.48522,-22.1458 11.49339,-37.0031 7.00817,-14.8573 15.97862,-23.2671 9.25078,-8.4098 18.50156,-12.6147 9.5311,-4.4852 18.50156,-5.6065 8.97045,-1.1213 15.97862,-1.1213 14.01633,0 24.66874,3.6442 10.93274,3.6442 18.78189,9.8114 8.12947,5.8869 13.73601,13.4557 5.60653,7.5688 9.5311,15.1377 l 6.44752,-38.1245 h 55.22431 v 370.5919 q 0,32.2375 -6.1672,58.0276 -6.1671,26.0704 -19.3425,44.2916 -13.1753,18.5016 -33.63919,28.313 -20.18352,9.8114 -48.49651,9.8114 -19.06221,0 -35.88181,-3.3639 -16.8196,-3.3639 -29.4343,-12.054 -12.6147,-8.4098 -19.90319,-23.2671 -7.2885,-14.577 -7.2885,-37.2835 0,-3.9246 0.84098,-9.8114 0.84098,-5.8869 2.80327,-12.6147 z m 40.36704,-97.5537 q 7.00817,0 12.33437,-2.2426 5.60654,-2.523 9.81144,-6.4475 4.48522,-3.9246 7.56882,-8.9705 3.36392,-5.0459 5.60653,-10.3721 v -211.0859 q -5.32621,-11.7738 -14.29666,-19.9032 -8.69013,-8.4098 -21.30483,-8.4098 -7.84914,0 -14.29666,2.8032 -6.44751,2.8033 -11.21306,10.6524 -4.76556,7.5689 -7.56882,21.3049 -2.52294,13.4556 -2.52294,35.0408 v 126.988 q 0,21.5851 2.52294,35.3211 2.80326,13.736 7.56882,21.5852 4.76555,7.8491 11.21306,10.9327 6.72784,2.8033 14.57699,2.8033 z" />
      <path
         id="path943"
         style="font-style:normal;font-variant:normal;font-weight:normal;font-stretch:normal;font-size:574.109px;line-height:1.25;font-family:'Fjalla One';-inkscape-font-specification:'Fjalla One';letter-spacing:-0.01px;opacity:1;fill:#ffffff;fill-opacity:1;stroke:none;stroke-width:14.3527;stop-opacity:1"
         d="m 1126.7713,1277.308 h 70.9227 v 90.8258 l -3.6443,66.1571 q 7.8492,-10.9327 16.8196,-17.9409 9.2508,-7.2885 18.7819,-11.4934 9.8114,-4.4852 19.6229,-6.1672 10.0917,-1.9623 19.9032,-1.9623 33.9195,0 52.1407,23.8278 18.5016,23.5474 18.5016,70.9226 v 295.7447 h -70.9227 v -293.2217 q 0,-25.5097 -7.8491,-35.3212 -7.8492,-10.0917 -22.9868,-10.0917 -10.6524,0 -21.5851,7.2885 -10.6525,7.0081 -18.7819,19.6228 v 311.7233 h -70.9227 z" />
      <path
         id="path945"
         style="font-style:normal;font-variant:normal;font-weight:normal;font-stretch:normal;font-size:574.109px;line-height:1.25;font-family:'Fjalla One';-inkscape-font-specification:'Fjalla One';letter-spacing:-0.01px;opacity:1;fill:#ffffff;fill-opacity:1;stroke:none;stroke-width:14.3527;stop-opacity:1"
         d="m 1421.9454,1451.6712 h -29.995 v -50.4588 h 36.1621 l 14.2967,-100.0767 h 50.4588 v 100.0767 h 61.6719 v 50.4588 h -61.6719 v 245.5661 q 0,12.6147 2.2426,20.4639 2.523,7.5688 6.7279,12.054 4.2049,4.2049 9.8114,5.6065 5.6065,1.4017 11.7737,1.4017 10.3721,0 18.2212,-2.523 8.1295,-2.5229 15.418,-7.0081 v 39.2457 q -6.1672,7.5688 -13.4557,12.3344 -7.0081,4.7655 -14.577,7.8491 -7.5688,2.8033 -15.4179,3.9246 -7.8492,1.1213 -15.418,1.1213 -14.8573,0 -28.5933,-3.9246 -13.736,-3.9246 -24.3884,-14.8573 -10.6524,-11.2131 -17.1,-30.8359 -6.1671,-19.6229 -6.1671,-51.0195 z" />
      <path
         style="font-style:normal;font-variant:normal;font-weight:normal;font-stretch:normal;font-size:574.109px;line-height:1.25;font-family:'Fjalla One';-inkscape-font-specification:'Fjalla One';letter-spacing:-0.01px;opacity:1;fill:#ffffff;fill-opacity:1;stroke:none;stroke-width:14.3527;stop-opacity:1"
         d="m 1604.428,1401.2124 h 70.9227 v 386.0098 h -70.9227 z"
         id="path964" />
      <path
         id="path949"
         style="font-style:normal;font-variant:normal;font-weight:normal;font-stretch:normal;font-size:574.109px;line-height:1.25;font-family:'Fjalla One';-inkscape-font-specification:'Fjalla One';letter-spacing:-0.01px;opacity:1;fill:#ffffff;fill-opacity:1;stroke:none;stroke-width:14.3527;stop-opacity:1"
         d="m 1749.0665,1401.2124 h 54.6637 l 6.4475,41.208 v 0.2803 q 8.4098,-13.1754 17.9409,-21.8655 9.8114,-8.9704 20.1835,-14.2966 10.3721,-5.3262 21.0245,-7.5689 10.9328,-2.2426 21.5852,-2.2426 33.9195,0 52.1407,23.8278 18.5016,23.5474 18.5016,70.9226 v 295.7447 h -70.9226 v -293.2217 q 0,-25.5097 -7.8492,-35.3212 -7.8491,-10.0917 -22.9868,-10.0917 -10.6524,0 -21.3048,7.0081 -10.3721,7.0082 -18.5016,19.3426 v 312.2839 h -70.9226 z" />
      <path
         id="path951"
         style="font-style:normal;font-variant:normal;font-weight:normal;font-stretch:normal;font-size:574.109px;line-height:1.25;font-family:'Fjalla One';-inkscape-font-specification:'Fjalla One';letter-spacing:-0.01px;opacity:1;fill:#ffffff;fill-opacity:1;stroke:none;stroke-width:14.3527;stop-opacity:1"
         d="m 2092.737,1813.5729 q 0,24.949 9.2508,35.3211 9.2508,10.3721 28.5933,10.3721 7.8491,0 15.1376,-2.5229 7.2885,-2.2426 12.6147,-8.6901 5.6066,-6.1672 8.9705,-17.3803 3.3639,-11.2131 3.3639,-28.8736 v -60.8309 q -9.5311,12.3343 -24.6687,21.3048 -14.8573,8.6901 -37.0032,8.6901 -6.4475,0 -15.1376,-1.1213 -8.6901,-1.4016 -17.9409,-5.8868 -9.2508,-4.4853 -18.2212,-13.4557 -8.9705,-9.2508 -15.9787,-24.6688 -7.0081,-15.4179 -11.4933,-38.4047 -4.2049,-23.2671 -4.2049,-56.0654 v -101.4782 q 0,-31.3966 4.2049,-53.2621 4.4852,-22.1458 11.4933,-37.0031 7.0082,-14.8573 15.9787,-23.2671 9.2507,-8.4098 18.5015,-12.6147 9.5311,-4.4852 18.5016,-5.6065 8.9704,-1.1213 15.9786,-1.1213 14.0163,0 24.6688,3.6442 10.9327,3.6442 18.7818,9.8114 8.1295,5.8869 13.736,13.4557 5.6066,7.5688 9.5312,15.1377 l 6.4475,-38.1245 h 55.2243 v 370.5919 q 0,32.2375 -6.1672,58.0276 -6.1672,26.0704 -19.3425,44.2916 -13.1754,18.5016 -33.6392,28.313 -20.1835,9.8114 -48.4965,9.8114 -19.0622,0 -35.8818,-3.3639 -16.8196,-3.3639 -29.4343,-12.054 -12.6147,-8.4098 -19.9032,-23.2671 -7.2885,-14.577 -7.2885,-37.2835 0,-3.9246 0.841,-9.8114 0.8409,-5.8869 2.8032,-12.6147 z m 40.367,-97.5537 q 7.0082,0 12.3344,-2.2426 5.6065,-2.523 9.8114,-6.4475 4.4853,-3.9246 7.5689,-8.9705 3.3639,-5.0459 5.6065,-10.3721 v -211.0859 q -5.3262,-11.7738 -14.2967,-19.9032 -8.6901,-8.4098 -21.3048,-8.4098 -7.8491,0 -14.2966,2.8032 -6.4476,2.8033 -11.2131,10.6524 -4.7656,7.5689 -7.5688,21.3049 -2.523,13.4556 -2.523,35.0408 v 126.988 q 0,21.5851 2.523,35.3211 2.8032,13.736 7.5688,21.5852 4.7655,7.8491 11.2131,10.9327 6.7278,2.8033 14.5769,2.8033 z" />
      <path
         id="path1165"
         style="font-style:normal;font-variant:normal;font-weight:normal;font-stretch:normal;font-size:574.109px;line-height:1.25;font-family:'Fjalla One';-inkscape-font-specification:'Fjalla One';opacity:1;fill:#ffffff;fill-opacity:1;stroke:none;stroke-width:14.3527;stop-opacity:1"
         d="m 2705.3892,1277.4811 h 70.9227 v 509.9142 h -70.9227 z" />
      <path
         id="path1167"
         style="font-style:normal;font-variant:normal;font-weight:normal;font-stretch:normal;font-size:574.109px;line-height:1.25;font-family:'Fjalla One';-inkscape-font-specification:'Fjalla One';opacity:1;fill:#ffffff;fill-opacity:1;stroke:none;stroke-width:14.3527;stop-opacity:1"
         d="m 2943.1062,1791.6002 c -16.6326,0 -31.3965,-3.0836 -44.2916,-9.2508 -12.7081,-6.1672 -23.454,-15.7918 -32.2376,-28.8737 -8.7835,-13.0819 -15.4179,-29.808 -19.9031,-50.1784 -4.4852,-20.5573 -6.7279,-45.2261 -6.7279,-74.0063 v -72.8849 c 0,-24.4819 1.7754,-45.4129 5.3262,-62.7932 3.7378,-17.5671 8.5033,-32.2376 14.2967,-44.0113 5.9803,-11.9606 12.8016,-21.3983 20.4638,-28.313 7.8492,-6.9147 15.8852,-12.1474 24.1081,-15.6983 8.223,-3.7377 16.3524,-6.0737 24.3884,-7.0081 8.223,-1.1213 15.7918,-1.682 22.7065,-1.682 103.1378,0 93.9094,210.8057 93.9094,210.8057 H 2911.149 v 39.2457 c 0,16.8196 0.6541,31.0228 1.9623,42.6097 1.3082,11.3999 3.4574,20.6507 6.4475,27.7523 3.177,6.9147 7.3819,11.9606 12.6147,15.1376 5.4197,2.9902 12.1475,4.4853 20.1835,4.4853 4.2984,0 8.5033,-0.841 12.6147,-2.523 4.1115,-1.8688 7.6623,-4.8589 10.6524,-8.9704 3.1771,-4.1115 5.7,-9.5311 7.5688,-16.259 1.8689,-6.9147 2.8033,-15.418 2.8033,-25.5097 v -12.054 h 59.1489 v 14.8573 c 0,36.6293 -8.7835,63.3538 -26.3507,80.1734 -17.3802,16.6327 -42.6096,24.9491 -75.6882,24.9491 z m 39.2458,-231.5499 c 0.1869,-2.0557 0.3738,-4.7655 0.5606,-8.1294 0.1869,-3.5508 0.2803,-7.1951 0.2803,-10.9328 0.187,-3.7377 0.2804,-7.3819 0.2804,-10.9327 v -9.5311 c 0,-25.4163 -2.9901,-43.7309 -8.9705,-54.944 -5.9802,-11.2131 -14.8572,-16.8196 -26.631,-16.8196 -6.1672,0 -11.5868,1.4951 -16.259,4.4852 -4.672,2.8033 -8.5032,7.6623 -11.4934,14.577 -2.9901,6.7278 -5.2327,15.6982 -6.7278,26.9113 -1.495,11.2131 -2.2426,25.136 -2.2426,41.7687 v 23.5474 z" />
      <path
         id="path1170"
         style="font-style:normal;font-variant:normal;font-weight:normal;font-stretch:normal;font-size:574.109px;line-height:1.25;font-family:'Fjalla One';-inkscape-font-specification:'Fjalla One';text-align:end;text-anchor:end;opacity:1;fill:#ffffff;fill-opacity:1;stroke:none;stroke-width:14.3527;stop-opacity:1"
         d="m 3145.7563,1308.2819 h 72.6046 v 200.4336 h 86.0603 v -200.4336 h 72.6046 v 478.7979 h -72.6046 v -221.1777 h -86.0603 v 221.1777 h -72.6046 z" />
      <path
         id="path1172"
         style="font-style:normal;font-variant:normal;font-weight:normal;font-stretch:normal;font-size:574.109px;line-height:1.25;font-family:'Fjalla One';-inkscape-font-specification:'Fjalla One';text-align:end;text-anchor:end;opacity:1;fill:#ffffff;fill-opacity:1;stroke:none;stroke-width:14.3527;stop-opacity:1"
         d="m 3539.0546,1788.4815 q -15.9787,-3.0836 -31.9573,-11.7738 -15.9786,-8.6901 -28.8736,-26.631 -12.895,-17.9409 -21.0245,-46.5342 -7.8492,-28.8737 -7.8492,-72.3243 v -169.5976 q 0,-36.1622 5.6066,-61.6719 5.8868,-25.79 15.4179,-43.1703 9.5311,-17.6606 21.5852,-28.0327 12.3344,-10.372 25.5097,-15.6983 13.4557,-5.6065 26.631,-7.2884 13.1754,-1.682 24.3885,-1.682 10.6524,0 23.5474,1.682 13.1754,1.4016 26.0704,6.7278 13.1753,5.0459 25.5097,15.418 12.3344,10.0917 21.8655,27.7523 9.5311,17.3803 15.1376,43.4506 5.8869,25.7901 5.8869,62.5129 v 169.5976 q 0,41.4884 -7.8492,69.8013 -7.8491,28.0327 -20.4638,45.9736 -12.3344,17.9409 -27.7523,27.472 -15.1377,9.2508 -30.2753,12.8951 v 4.2049 q 0,13.736 3.0836,22.1458 3.3639,8.4098 9.5311,12.895 6.4475,4.7655 15.6983,6.1672 9.5311,1.6819 21.8655,1.6819 3.9245,0 7.8491,0 3.9246,0 7.2885,-0.2803 v 39.2457 q -13.736,6.1672 -25.7901,8.4098 -12.054,2.2427 -25.5097,2.2427 -5.8868,0 -13.736,-0.841 -7.8491,-0.5607 -16.2589,-3.3639 -8.4098,-2.523 -16.5393,-7.5689 -7.8492,-4.7655 -14.2967,-13.4556 -6.4475,-8.4098 -10.3721,-21.0245 -3.9245,-12.6147 -3.9245,-30.5556 z m 29.4343,-51.8605 q 10.6524,0 18.5015,-3.6442 8.1295,-3.6443 13.1754,-12.6147 5.3262,-8.9705 7.8491,-23.5475 2.8033,-14.8573 2.8033,-37.2834 v -217.8138 q 0,-22.9868 -2.8033,-38.4048 -2.5229,-15.4179 -7.8491,-24.6687 -5.0459,-9.5311 -13.1754,-13.4557 -7.8491,-3.9246 -18.5015,-3.9246 -10.9328,0 -19.0622,3.9246 -8.1295,3.9246 -13.4557,13.4557 -5.3262,9.2508 -8.1295,24.6687 -2.5229,15.418 -2.5229,38.4048 v 217.8138 q 0,22.4261 2.5229,37.2834 2.8033,14.577 8.1295,23.5475 5.3262,8.9704 13.4557,12.6147 8.1294,3.6442 19.0622,3.6442 z" />
      <path
         id="path1132"
         d="m 2500.6523,1632.6875 v 0.01 l -0.01,0.012 -0.025,0.051 0.062,-0.1133 z"
         style="color:#000000;font-style:normal;font-variant:normal;font-weight:normal;font-stretch:normal;font-size:medium;line-height:normal;font-family:sans-serif;font-variant-ligatures:normal;font-variant-position:normal;font-variant-caps:normal;font-variant-numeric:normal;font-variant-alternates:normal;font-variant-east-asian:normal;font-feature-settings:normal;font-variation-settings:normal;text-indent:0;text-align:start;text-decoration:none;text-decoration-line:none;text-decoration-style:solid;text-decoration-color:#000000;letter-spacing:normal;word-spacing:normal;text-transform:none;writing-mode:lr-tb;direction:ltr;text-orientation:mixed;dominant-baseline:auto;baseline-shift:baseline;text-anchor:start;white-space:normal;shape-padding:0;shape-margin:0;inline-size:0;clip-rule:nonzero;display:inline;overflow:visible;visibility:visible;opacity:1;isolation:auto;mix-blend-mode:normal;color-interpolation:sRGB;color-interpolation-filters:linearRGB;solid-color:#000000;solid-opacity:1;vector-effect:none;fill:#ffffff;fill-opacity:1;fill-rule:nonzero;stroke:none;stroke-width:33.2743;stroke-linecap:butt;stroke-linejoin:round;stroke-miterlimit:4;stroke-dasharray:none;stroke-dashoffset:0;stroke-opacity:1;color-rendering:auto;image-rendering:auto;shape-rendering:auto;text-rendering:auto;enable-background:accumulate;stop-color:#000000;stop-opacity:1" />
      <path
         id="path1128"
         d="m 2373.252,1586.3516 0.059,-0.078 v -0.01 l 0.01,-0.01 0.057,-0.088 z"
         style="color:#000000;font-style:normal;font-variant:normal;font-weight:normal;font-stretch:normal;font-size:medium;line-height:normal;font-family:sans-serif;font-variant-ligatures:normal;font-variant-position:normal;font-variant-caps:normal;font-variant-numeric:normal;font-variant-alternates:normal;font-variant-east-asian:normal;font-feature-settings:normal;font-variation-settings:normal;text-indent:0;text-align:start;text-decoration:none;text-decoration-line:none;text-decoration-style:solid;text-decoration-color:#000000;letter-spacing:normal;word-spacing:normal;text-transform:none;writing-mode:lr-tb;direction:ltr;text-orientation:mixed;dominant-baseline:auto;baseline-shift:baseline;text-anchor:start;white-space:normal;shape-padding:0;shape-margin:0;inline-size:0;clip-rule:nonzero;display:inline;overflow:visible;visibility:visible;opacity:1;isolation:auto;mix-blend-mode:normal;color-interpolation:sRGB;color-interpolation-filters:linearRGB;solid-color:#000000;solid-opacity:1;vector-effect:none;fill:#ffffff;fill-opacity:1;fill-rule:nonzero;stroke:none;stroke-width:33.2743;stroke-linecap:butt;stroke-linejoin:round;stroke-miterlimit:4;stroke-dasharray:none;stroke-dashoffset:0;stroke-opacity:1;color-rendering:auto;image-rendering:auto;shape-rendering:auto;text-rendering:auto;enable-background:accumulate;stop-color:#000000;stop-opacity:1" />
      <path
         id="path1126"
         d="m 2498.5469,1637.041 0.055,-0.086 -0.049,0.076 z"
         style="color:#000000;font-style:normal;font-variant:normal;font-weight:normal;font-stretch:normal;font-size:medium;line-height:normal;font-family:sans-serif;font-variant-ligatures:normal;font-variant-position:normal;font-variant-caps:normal;font-variant-numeric:normal;font-variant-alternates:normal;font-variant-east-asian:normal;font-feature-settings:normal;font-variation-settings:normal;text-indent:0;text-align:start;text-decoration:none;text-decoration-line:none;text-decoration-style:solid;text-decoration-color:#000000;letter-spacing:normal;word-spacing:normal;text-transform:none;writing-mode:lr-tb;direction:ltr;text-orientation:mixed;dominant-baseline:auto;baseline-shift:baseline;text-anchor:start;white-space:normal;shape-padding:0;shape-margin:0;inline-size:0;clip-rule:nonzero;display:inline;overflow:visible;visibility:visible;opacity:1;isolation:auto;mix-blend-mode:normal;color-interpolation:sRGB;color-interpolation-filters:linearRGB;solid-color:#000000;solid-opacity:1;vector-effect:none;fill:#ffffff;fill-opacity:1;fill-rule:nonzero;stroke:none;stroke-width:33.2743;stroke-linecap:butt;stroke-linejoin:round;stroke-miterlimit:4;stroke-dasharray:none;stroke-dashoffset:0;stroke-opacity:1;color-rendering:auto;image-rendering:auto;shape-rendering:auto;text-rendering:auto;enable-background:accumulate;stop-color:#000000;stop-opacity:1" />
      <path
         transform="translate(28.284271,-269.23849)"
         d="m 2488.5273,1670.666 a 7.6848686,7.6848686 0 0 0 -0.1171,0 h -89.5118 c -18.6316,9e-4 -32.6971,10.9768 -40.9063,21.582 -7.951,10.2719 -12.2673,21.0227 -15.0605,27.7812 -2.1041,5.0914 -7.2238,18.7712 -14.9727,39.4805 -7.7522,20.718 -17.6647,47.3578 -27.7031,74.4492 -20.0766,54.181 -40.3951,109.3829 -45.5762,124.4043 -7.1107,20.6063 -6.9115,43.4451 3.2266,62.9551 10.3698,19.9561 32.2767,34.2245 58.7949,34.5606 38.0071,0.4823 51.9981,0.1347 51.9981,0.1347 9.72,-0.2492 18.346,-6.4707 21.6504,-15.6152 0.013,-0.034 3.7855,-10.3026 8.9394,-20.0508 2.4063,-4.5513 5.2745,-8.9408 7.0801,-11.1699 19.3658,-0.7624 55.7095,-0.483 73.0586,0.012 1.8292,2.4778 4.4346,6.6132 6.7383,11.0176 5.2522,10.0407 9.2949,20.6133 9.2949,20.6133 3.4753,9.1738 12.3177,15.2828 22.1289,15.2832 h 56.7519 c 44.7527,0 74.9559,-49.7091 59.8477,-96.0254 -5.7723,-17.7606 -26.9826,-77.6372 -47.7051,-135.3067 -10.3643,-28.843 -20.5329,-56.9053 -28.4141,-78.3144 -3.9405,-10.7047 -7.3045,-19.7362 -9.8672,-26.4512 -1.2804,-3.355 -2.3566,-6.1233 -3.25,-8.3379 v 0 c -0.6929,-1.718 -1.1104,-3.2531 -2.9961,-6.5723 v 0 c -3.1515,-5.5472 -8.3808,-13.3638 -16.8066,-20.504 -8.5804,-7.271 -21.1889,-13.9238 -36.627,-13.9238 z m -90.123,47.3106 c 0.011,0 0.092,0.023 0.5,0.023 h 89.623 c 2.3357,0 3.3653,0.4457 6.0293,2.7031 2.139,1.8127 4.5394,5.0339 5.8262,7.166 0.2336,0.4988 0.5013,1.0625 0.6817,1.5098 0.6978,1.7294 1.7036,4.3124 2.9238,7.5098 2.441,6.3963 5.7676,15.3195 9.6719,25.9257 7.8089,21.2131 17.9531,49.2045 28.289,77.9688 20.6714,57.5271 42.4192,119.1134 47.2422,133.9551 a 7.6848686,7.6848686 0 0 0 0.021,0.062 c 3.025,9.3139 0.9502,17.8722 -3.0469,24.3261 -4.0026,6.4626 -10.4454,9.6543 -11.8144,9.6543 h -41.2461 c -1.5289,-3.3594 -2.9797,-6.6546 -4.9922,-10.5019 -3.4307,-6.5585 -7.4385,-13.5292 -12.6504,-19.9746 -4.4268,-5.4746 -12.1303,-14.7275 -25.9492,-16.084 a 7.6848686,7.6848686 0 0 0 -0.7559,-0.037 l -91.2402,0.076 a 7.6848686,7.6848686 0 0 0 -0.9473,0.059 c -12.8068,1.6017 -20.7889,9.738 -25.7793,15.5723 -5.625,6.5764 -9.8226,13.704 -13.334,20.3457 -2.0451,3.8681 -3.4743,7.171 -4.9941,10.5429 -7.7919,0.015 -17.5342,0.01 -35.1563,-0.2148 -6.0695,-0.077 -9.5542,-1.1696 -11.8593,-2.5664 -2.3051,-1.3968 -3.8651,-3.2706 -5.5391,-6.4922 -2.8442,-5.4732 -3.8404,-15.9733 -0.4844,-25.6973 4.3315,-12.5585 25.1689,-69.2883 45.2168,-123.3926 10.0245,-27.0529 19.923,-53.6582 27.6485,-74.3047 7.7224,-20.6382 13.9902,-37.0356 14.3847,-37.9902 2.5781,-6.2384 6.0066,-13.347 8.7481,-16.8887 1.621,-2.0941 2.6485,-2.9842 2.9023,-3.1484 0.1269,-0.082 0.069,-0.1011 0.08,-0.1 z"
         style="color:#000000;font-style:normal;font-variant:normal;font-weight:normal;font-stretch:normal;font-size:medium;line-height:normal;font-family:sans-serif;font-variant-ligatures:normal;font-variant-position:normal;font-variant-caps:normal;font-variant-numeric:normal;font-variant-alternates:normal;font-variant-east-asian:normal;font-feature-settings:normal;font-variation-settings:normal;text-indent:0;text-align:start;text-decoration:none;text-decoration-line:none;text-decoration-style:solid;text-decoration-color:#000000;letter-spacing:normal;word-spacing:normal;text-transform:none;writing-mode:lr-tb;direction:ltr;text-orientation:mixed;dominant-baseline:auto;baseline-shift:baseline;text-anchor:start;white-space:normal;shape-padding:0;shape-margin:0;inline-size:0;clip-rule:nonzero;display:inline;overflow:visible;visibility:visible;opacity:1;isolation:auto;mix-blend-mode:normal;color-interpolation:sRGB;color-interpolation-filters:linearRGB;solid-color:#000000;solid-opacity:1;vector-effect:none;fill:#ffffff;fill-opacity:1;fill-rule:nonzero;stroke:none;stroke-width:15.3682;stroke-linecap:butt;stroke-linejoin:round;stroke-miterlimit:4;stroke-dasharray:none;stroke-dashoffset:0;stroke-opacity:1;color-rendering:auto;image-rendering:auto;shape-rendering:auto;text-rendering:auto;enable-background:accumulate;stop-color:#000000;stop-opacity:1"
         id="path1247" />
      <path
         transform="translate(28.284271,-269.23849)"
         d="m 2421.8809,1739.0586 -2.5704,16.8418 c -3.8637,25.3186 -17.6033,42.0326 -32.375,60.6641 -14.7717,18.6315 -30.7513,39.7414 -31.0078,70.4238 -0.2192,26.2022 17.7298,43.4819 30.6426,55.9512 v 0 c 2.5187,2.4321 4.8865,4.4657 7.041,6.3555 l 3.2617,2.8613 92.7266,-0.078 3.2324,-2.7793 c 2.9905,-2.5708 6.1179,-5.33 9.2871,-8.3965 14.3774,-13.9121 30.4345,-32.8365 31.4493,-56.9043 1.4811,-35.1218 -20.9021,-65.1022 -39.9434,-88.5879 -12.4744,-15.3858 -40.8195,-38.0791 -57.0762,-47.6855 z m 17.5117,56.5918 c 10.8268,8.2345 24.9695,20.3243 29.291,25.6543 14.1411,17.4418 27.6748,37.7605 26.8867,56.4531 -0.442,10.4798 -9.086,22.4307 -18.8808,31.9082 -1.303,1.2608 -2.6712,2.435 -4.0215,3.6309 l -58.1231,0.051 c -0.7818,-0.6977 -1.6267,-1.4175 -2.3574,-2.1231 -9.837,-9.4991 -18.3303,-18.3381 -18.2305,-30.2617 0.1483,-17.7356 8.8547,-29.3007 20.0938,-43.4766 9.0618,-11.4295 19.594,-24.3576 25.3418,-41.8359 z"
         style="color:#000000;font-style:normal;font-variant:normal;font-weight:normal;font-stretch:normal;font-size:medium;line-height:normal;font-family:sans-serif;font-variant-ligatures:normal;font-variant-position:normal;font-variant-caps:normal;font-variant-numeric:normal;font-variant-alternates:normal;font-variant-east-asian:normal;font-feature-settings:normal;font-variation-settings:normal;text-indent:0;text-align:start;text-decoration:none;text-decoration-line:none;text-decoration-style:solid;text-decoration-color:#000000;letter-spacing:normal;word-spacing:normal;text-transform:none;writing-mode:lr-tb;direction:ltr;text-orientation:mixed;dominant-baseline:auto;baseline-shift:baseline;text-anchor:start;white-space:normal;shape-padding:0;shape-margin:0;inline-size:0;clip-rule:nonzero;display:inline;overflow:visible;visibility:visible;opacity:1;isolation:auto;mix-blend-mode:normal;color-interpolation:sRGB;color-interpolation-filters:linearRGB;solid-color:#000000;solid-opacity:1;vector-effect:none;fill:#ffffff;fill-opacity:1;fill-rule:nonzero;stroke:none;stroke-width:23.0257;stroke-linecap:butt;stroke-linejoin:miter;stroke-miterlimit:4;stroke-dasharray:none;stroke-dashoffset:0;stroke-opacity:1;color-rendering:auto;image-rendering:auto;shape-rendering:auto;text-rendering:auto;enable-background:accumulate;stop-color:#000000;stop-opacity:1"
         id="path1233" />
    </g>
  </g>
</svg>
