<?xml version="1.0" encoding="UTF-8" standalone="no"?>
<!DOCTYPE svg PUBLIC "-//W3C//DTD SVG 1.1//EN" "http://www.w3.org/Graphics/SVG/1.1/DTD/svg11.dtd">
<svg width="100%" height="100%" viewBox="0 0 1501 600" version="1.1" xmlns="http://www.w3.org/2000/svg" xmlns:xlink="http://www.w3.org/1999/xlink" xml:space="preserve" xmlns:serif="http://www.serif.com/" style="fill-rule:evenodd;clip-rule:evenodd;stroke-linejoin:round;stroke-miterlimit:2;">
    <g id="g1267" transform="matrix(0.576538,0,0,0.576538,-147.13,-511.726)">
        <path id="path937" d="M293.418,981.318L337.57,981.318L424.611,1221.63L425.873,1221.63C425.452,1216.02 424.891,1209.78 424.191,1202.92C423.49,1196.05 422.859,1188.27 422.298,1179.58C421.738,1170.75 421.247,1160.8 420.827,1149.72C420.406,1138.65 420.196,1126.18 420.196,1112.3L420.196,981.318L468.973,981.318L468.973,1340.42L424.401,1340.42L337.78,1106.41L336.098,1106.41C336.518,1112.72 337.079,1119.59 337.78,1127.02C338.481,1134.31 339.111,1142.93 339.672,1152.88C340.233,1162.83 340.723,1174.46 341.144,1187.78C341.564,1200.95 341.775,1216.65 341.775,1234.87L341.775,1340.42L293.418,1340.42L293.418,981.318Z" style="fill:rgb(0,150,136);fill-rule:nonzero;"/>
        <rect id="path968" x="528.044" y="1050.91" width="53.192" height="289.507" style="fill:rgb(0,150,136);fill-rule:nonzero;"/>
        <path id="path941" d="M679.833,1360.18C679.833,1372.65 682.146,1381.48 686.772,1386.67C691.397,1391.86 698.545,1394.45 708.217,1394.45C712.141,1394.45 715.926,1393.82 719.57,1392.56C723.214,1391.44 726.368,1389.26 729.031,1386.04C731.834,1382.96 734.077,1378.61 735.759,1373.01C737.441,1367.4 738.282,1360.18 738.282,1351.35L738.282,1305.73C733.516,1311.89 727.349,1317.22 719.78,1321.7C712.351,1326.05 703.101,1328.22 692.028,1328.22C688.804,1328.22 685.02,1327.94 680.674,1327.38C676.329,1326.68 671.844,1325.21 667.219,1322.97C662.593,1320.72 658.038,1317.36 653.553,1312.88C649.068,1308.25 645.073,1302.08 641.569,1294.37C638.065,1286.66 635.191,1277.06 632.949,1265.57C630.846,1253.94 629.795,1239.92 629.795,1223.52L629.795,1147.41C629.795,1131.71 630.846,1118.4 632.949,1107.46C635.191,1096.39 638.065,1087.14 641.569,1079.71C645.073,1072.28 649.068,1066.47 653.553,1062.26C658.178,1058.06 662.804,1054.9 667.429,1052.8C672.195,1050.56 676.82,1049.16 681.305,1048.6C685.79,1048.04 689.785,1047.76 693.289,1047.76C700.297,1047.76 706.464,1048.67 711.791,1050.49C717.257,1052.31 721.953,1054.76 725.877,1057.85C729.942,1060.79 733.376,1064.15 736.179,1067.94C738.982,1071.72 741.365,1075.51 743.327,1079.29L748.163,1050.7L789.581,1050.7L789.581,1328.64C789.581,1344.76 788.04,1359.27 784.956,1372.16C781.872,1385.2 777.037,1396.27 770.449,1405.38C763.861,1414.63 755.452,1421.71 745.22,1426.62C735.128,1431.52 723.004,1433.98 708.847,1433.98C699.316,1433.98 690.346,1433.13 681.936,1431.45C673.526,1429.77 666.168,1426.76 659.86,1422.41C653.553,1418.21 648.577,1412.39 644.933,1404.96C641.289,1397.67 639.466,1388.35 639.466,1377C639.466,1375.04 639.677,1372.58 640.097,1369.64C640.518,1366.7 641.218,1363.54 642.2,1360.18L679.833,1360.18ZM710.109,1287.01C713.613,1287.01 716.696,1286.45 719.36,1285.33C722.163,1284.07 724.616,1282.46 726.718,1280.5C728.961,1278.54 730.853,1276.29 732.395,1273.77C734.077,1271.25 735.478,1268.65 736.6,1265.99L736.6,1107.67C733.937,1101.79 730.362,1096.81 725.877,1092.75C721.532,1088.54 716.206,1086.44 709.898,1086.44C705.974,1086.44 702.4,1087.14 699.176,1088.54C695.952,1089.94 693.149,1092.61 690.766,1096.53C688.383,1100.32 686.491,1105.64 685.09,1112.51C683.828,1119.24 683.197,1128 683.197,1138.79L683.197,1234.03C683.197,1244.83 683.828,1253.65 685.09,1260.52C686.491,1267.39 688.383,1272.79 690.766,1276.71C693.149,1280.64 695.952,1283.37 699.176,1284.91C702.54,1286.31 706.184,1287.01 710.109,1287.01Z" style="fill:rgb(0,150,136);fill-rule:nonzero;"/>
        <path id="path943" d="M845.078,957.981L898.27,957.981L898.27,1026.1L895.537,1075.72C899.462,1070.25 903.667,1065.77 908.152,1062.26C912.777,1058.62 917.473,1055.75 922.238,1053.64C927.144,1051.4 932.05,1049.86 936.956,1049.02C942.001,1048.04 946.977,1047.55 951.883,1047.55C968.843,1047.55 981.878,1053.5 990.988,1065.42C1000.24,1077.19 1004.87,1094.92 1004.87,1118.61L1004.87,1340.42L951.673,1340.42L951.673,1120.5C951.673,1107.75 949.71,1098.91 945.786,1094.01C941.861,1088.96 936.115,1086.44 928.546,1086.44C923.22,1086.44 917.823,1088.26 912.357,1091.91C907.031,1095.41 902.335,1100.32 898.27,1106.62L898.27,1340.42L845.078,1340.42L845.078,957.981Z" style="fill:rgb(0,150,136);fill-rule:nonzero;"/>
        <path id="path945" d="M1066.46,1088.75L1043.96,1088.75L1043.96,1050.91L1071.08,1050.91L1081.81,975.852L1119.65,975.852L1119.65,1050.91L1165.9,1050.91L1165.9,1088.75L1119.65,1088.75L1119.65,1272.93C1119.65,1279.24 1120.21,1284.35 1121.33,1288.28C1122.59,1292.06 1124.28,1295.07 1126.38,1297.32C1128.48,1299.42 1130.93,1300.82 1133.74,1301.52C1136.54,1302.22 1139.48,1302.57 1142.57,1302.57C1147.75,1302.57 1152.31,1301.94 1156.23,1300.68C1160.3,1299.42 1164.15,1297.67 1167.8,1295.42L1167.8,1324.86C1164.71,1328.64 1161.35,1331.73 1157.7,1334.11C1154.2,1336.49 1150.56,1338.45 1146.77,1340C1142.99,1341.4 1139.13,1342.38 1135.21,1342.94C1131.29,1343.5 1127.43,1343.78 1123.65,1343.78C1116.22,1343.78 1109.07,1342.8 1102.2,1340.84C1095.33,1338.88 1089.24,1335.16 1083.91,1329.69C1078.58,1324.09 1074.31,1316.38 1071.08,1306.57C1068,1296.76 1066.46,1284 1066.46,1268.3L1066.46,1088.75Z" style="fill:rgb(0,150,136);fill-rule:nonzero;"/>
        <rect id="path964" x="1203.32" y="1050.91" width="53.192" height="289.507" style="fill:rgb(0,150,136);fill-rule:nonzero;"/>
        <path id="path949" d="M1311.8,1050.91L1352.8,1050.91L1357.63,1081.82L1357.63,1082.03C1361.84,1075.44 1366.32,1069.97 1371.09,1065.63C1376,1061.14 1381.04,1057.57 1386.23,1054.9C1391.41,1052.24 1396.67,1050.35 1402,1049.23C1407.46,1048.11 1412.86,1047.55 1418.18,1047.55C1435.14,1047.55 1448.18,1053.5 1457.29,1065.42C1466.54,1077.19 1471.17,1094.92 1471.17,1118.61L1471.17,1340.42L1417.97,1340.42L1417.97,1120.5C1417.97,1107.75 1416.01,1098.91 1412.09,1094.01C1408.16,1088.96 1402.41,1086.44 1394.85,1086.44C1389.52,1086.44 1384.19,1088.19 1378.87,1091.7C1373.68,1095.2 1369.06,1100.04 1364.99,1106.2L1364.99,1340.42L1311.8,1340.42L1311.8,1050.91Z" style="fill:rgb(0,150,136);fill-rule:nonzero;"/>
        <path id="path951" d="M1569.55,1360.18C1569.55,1372.65 1571.87,1381.48 1576.49,1386.67C1581.12,1391.86 1588.27,1394.45 1597.94,1394.45C1601.86,1394.45 1605.64,1393.82 1609.29,1392.56C1612.93,1391.44 1616.09,1389.26 1618.75,1386.04C1621.55,1382.96 1623.8,1378.61 1625.48,1373.01C1627.16,1367.4 1628,1360.18 1628,1351.35L1628,1305.73C1623.24,1311.89 1617.07,1317.22 1609.5,1321.7C1602.07,1326.05 1592.82,1328.22 1581.75,1328.22C1578.52,1328.22 1574.74,1327.94 1570.39,1327.38C1566.05,1326.68 1561.56,1325.21 1556.94,1322.97C1552.31,1320.72 1547.76,1317.36 1543.27,1312.88C1538.79,1308.25 1534.79,1302.08 1531.29,1294.37C1527.78,1286.66 1524.91,1277.06 1522.67,1265.57C1520.57,1253.94 1519.51,1239.92 1519.51,1223.52L1519.51,1147.41C1519.51,1131.71 1520.57,1118.4 1522.67,1107.46C1524.91,1096.39 1527.78,1087.14 1531.29,1079.71C1534.79,1072.28 1538.79,1066.47 1543.27,1062.26C1547.9,1058.06 1552.52,1054.9 1557.15,1052.8C1561.91,1050.56 1566.54,1049.16 1571.02,1048.6C1575.51,1048.04 1579.5,1047.76 1583.01,1047.76C1590.02,1047.76 1596.18,1048.67 1601.51,1050.49C1606.98,1052.31 1611.67,1054.76 1615.6,1057.85C1619.66,1060.79 1623.1,1064.15 1625.9,1067.94C1628.7,1071.72 1631.08,1075.51 1633.05,1079.29L1637.88,1050.7L1679.3,1050.7L1679.3,1328.64C1679.3,1344.76 1677.76,1359.27 1674.67,1372.16C1671.59,1385.2 1666.76,1396.27 1660.17,1405.38C1653.58,1414.63 1645.17,1421.71 1634.94,1426.62C1624.85,1431.52 1612.72,1433.98 1598.57,1433.98C1589.04,1433.98 1580.07,1433.13 1571.65,1431.45C1563.25,1429.77 1555.89,1426.76 1549.58,1422.41C1543.27,1418.21 1538.3,1412.39 1534.65,1404.96C1531.01,1397.67 1529.19,1388.35 1529.19,1377C1529.19,1375.04 1529.4,1372.58 1529.82,1369.64C1530.24,1366.7 1530.94,1363.54 1531.92,1360.18L1569.55,1360.18ZM1599.83,1287.01C1603.33,1287.01 1606.42,1286.45 1609.08,1285.33C1611.88,1284.07 1614.34,1282.46 1616.44,1280.5C1618.68,1278.54 1620.57,1276.29 1622.11,1273.77C1623.8,1271.25 1625.2,1268.65 1626.32,1265.99L1626.32,1107.67C1623.66,1101.79 1620.08,1096.81 1615.6,1092.75C1611.25,1088.54 1605.92,1086.44 1599.62,1086.44C1595.69,1086.44 1592.12,1087.14 1588.89,1088.54C1585.67,1089.94 1582.87,1092.61 1580.49,1096.53C1578.1,1100.32 1576.21,1105.64 1574.81,1112.51C1573.55,1119.24 1572.92,1128 1572.92,1138.79L1572.92,1234.03C1572.92,1244.83 1573.55,1253.65 1574.81,1260.52C1576.21,1267.39 1578.1,1272.79 1580.49,1276.71C1582.87,1280.64 1585.67,1283.37 1588.89,1284.91C1592.26,1286.31 1595.9,1287.01 1599.83,1287.01Z" style="fill:rgb(0,150,136);fill-rule:nonzero;"/>
        <rect id="path1165" x="2029.04" y="958.111" width="53.192" height="382.436" style="fill:rgb(0,150,136);fill-rule:nonzero;"/>
        <path id="path1167" d="M2207.33,1343.7C2194.86,1343.7 2183.78,1341.39 2174.11,1336.76C2164.58,1332.14 2156.52,1324.92 2149.93,1315.11C2143.35,1305.3 2138.37,1292.75 2135.01,1277.47C2131.64,1262.06 2129.96,1243.55 2129.96,1221.97L2129.96,1167.31C2129.96,1148.94 2131.29,1133.25 2133.95,1120.21C2136.76,1107.03 2140.33,1096.03 2144.68,1087.2C2149.16,1078.23 2154.28,1071.15 2160.03,1065.97C2165.91,1060.78 2171.94,1056.86 2178.11,1054.19C2184.27,1051.39 2190.37,1049.64 2196.4,1048.94C2202.56,1048.1 2208.24,1047.67 2213.43,1047.67C2290.78,1047.67 2283.86,1205.78 2283.86,1205.78L2183.36,1205.78L2183.36,1235.21C2183.36,1247.83 2183.85,1258.48 2184.83,1267.17C2185.82,1275.72 2187.43,1282.66 2189.67,1287.99C2192.05,1293.17 2195.21,1296.96 2199.13,1299.34C2203.2,1301.58 2208.24,1302.7 2214.27,1302.7C2217.49,1302.7 2220.64,1302.07 2223.73,1300.81C2226.81,1299.41 2229.47,1297.17 2231.72,1294.08C2234.1,1291 2235.99,1286.93 2237.39,1281.89C2238.8,1276.7 2239.5,1270.33 2239.5,1262.76L2239.5,1253.71L2283.86,1253.71L2283.86,1264.86C2283.86,1292.33 2277.27,1312.37 2264.1,1324.99C2251.06,1337.46 2232.14,1343.7 2207.33,1343.7ZM2236.76,1170.04C2236.9,1168.5 2237.04,1166.46 2237.18,1163.94C2237.33,1161.28 2237.39,1158.54 2237.39,1155.74C2237.53,1152.94 2237.61,1150.2 2237.61,1147.54L2237.61,1140.39C2237.61,1121.33 2235.36,1107.6 2230.88,1099.18C2226.39,1090.78 2219.73,1086.57 2210.9,1086.57C2206.28,1086.57 2202.21,1087.69 2198.71,1089.93C2195.21,1092.04 2192.33,1095.68 2190.09,1100.87C2187.85,1105.91 2186.16,1112.64 2185.04,1121.05C2183.92,1129.46 2183.36,1139.9 2183.36,1152.38L2183.36,1170.04L2236.76,1170.04Z" style="fill:rgb(0,150,136);fill-rule:nonzero;"/>
        <path id="path1170" d="M2359.32,981.211L2413.77,981.211L2413.77,1131.54L2478.32,1131.54L2478.32,981.211L2532.77,981.211L2532.77,1340.31L2478.32,1340.31L2478.32,1174.43L2413.77,1174.43L2413.77,1340.31L2359.32,1340.31L2359.32,981.211Z" style="fill:rgb(255,186,73);fill-rule:nonzero;"/>
        <path id="path1172" d="M2654.29,1341.36C2646.3,1339.82 2638.31,1336.88 2630.32,1332.53C2622.33,1328.19 2615.12,1321.53 2608.67,1312.56C2602.22,1303.59 2596.96,1291.95 2592.9,1277.66C2588.97,1263.22 2587.01,1245.14 2587.01,1223.41L2587.01,1096.21C2587.01,1078.13 2588.41,1062.72 2591.22,1049.96C2594.16,1037.07 2598.01,1026.27 2602.78,1017.58C2607.55,1008.75 2612.94,1001.75 2618.97,996.559C2625.14,991.373 2631.51,987.449 2638.1,984.786C2644.83,981.982 2651.49,980.16 2658.08,979.319C2664.66,978.478 2670.76,978.058 2676.37,978.058C2681.69,978.058 2687.58,978.478 2694.03,979.319C2700.62,980.02 2707.13,981.702 2713.58,984.365C2720.17,986.888 2726.55,990.743 2732.71,995.929C2738.88,1000.97 2744.35,1007.91 2749.11,1016.74C2753.88,1025.43 2757.66,1036.3 2760.47,1049.33C2763.41,1062.23 2764.88,1077.85 2764.88,1096.21L2764.88,1223.41C2764.88,1244.16 2762.92,1261.61 2758.99,1275.77C2755.07,1289.78 2749.95,1301.27 2743.64,1310.25C2737.48,1319.21 2730.54,1326.08 2722.83,1330.85C2715.26,1335.47 2707.69,1338.7 2700.12,1340.52L2700.12,1343.67C2700.12,1350.54 2700.89,1356.08 2702.44,1360.28C2704.12,1364.49 2706.5,1367.71 2709.59,1369.95C2712.81,1372.34 2716.73,1373.88 2721.36,1374.58C2726.12,1375.42 2731.59,1375.84 2737.76,1375.84L2743.64,1375.84C2745.61,1375.84 2747.43,1375.77 2749.11,1375.63L2749.11,1405.07C2742.24,1408.15 2735.8,1410.25 2729.77,1411.37C2723.74,1412.49 2717.36,1413.06 2710.64,1413.06C2707.69,1413.06 2704.26,1412.84 2700.34,1412.42C2696.41,1412.14 2692.35,1411.3 2688.14,1409.9C2683.93,1408.64 2679.8,1406.75 2675.74,1404.22C2671.81,1401.84 2668.24,1398.48 2665.01,1394.13C2661.79,1389.93 2659.2,1384.67 2657.23,1378.36C2655.27,1372.06 2654.29,1364.42 2654.29,1355.45L2654.29,1341.36ZM2676.37,1302.47C2681.69,1302.47 2686.32,1301.56 2690.24,1299.73C2694.31,1297.91 2697.6,1294.76 2700.12,1290.27C2702.79,1285.79 2704.75,1279.9 2706.01,1272.61C2707.41,1265.18 2708.11,1255.86 2708.11,1244.65L2708.11,1081.29C2708.11,1069.8 2707.41,1060.19 2706.01,1052.48C2704.75,1044.78 2702.79,1038.61 2700.12,1033.98C2697.6,1029.22 2694.31,1025.85 2690.24,1023.89C2686.32,1021.93 2681.69,1020.95 2676.37,1020.95C2670.9,1020.95 2666.14,1021.93 2662.07,1023.89C2658.01,1025.85 2654.64,1029.22 2651.98,1033.98C2649.32,1038.61 2647.28,1044.78 2645.88,1052.48C2644.62,1060.19 2643.99,1069.8 2643.99,1081.29L2643.99,1244.65C2643.99,1255.86 2644.62,1265.18 2645.88,1272.61C2647.28,1279.9 2649.32,1285.79 2651.98,1290.27C2654.64,1294.76 2658.01,1297.91 2662.07,1299.73C2666.14,1301.56 2670.9,1302.47 2676.37,1302.47Z" style="fill:rgb(255,186,73);fill-rule:nonzero;"/>
        <path id="path1132" d="M1875.49,1224.52L1875.49,1224.52L1875.48,1224.53L1875.46,1224.57L1875.51,1224.49L1875.49,1224.52Z" style="fill:rgb(255,212,42);fill-rule:nonzero;"/>
        <path id="path1128" d="M1779.94,1189.76L1779.98,1189.7L1779.98,1189.7L1779.99,1189.69L1780.03,1189.62L1779.94,1189.76Z" style="fill:rgb(255,212,42);fill-rule:nonzero;"/>
        <path id="path1126" d="M1873.91,1227.78L1873.95,1227.72L1873.91,1227.77L1873.91,1227.78Z" style="fill:rgb(255,212,42);fill-rule:nonzero;"/>
        <g id="path1247" transform="matrix(1,0,0,1,21.2132,-201.929)">
            <path d="M1866.39,1253C1866.37,1253 1866.34,1253 1866.31,1253L1799.17,1253C1785.2,1253 1774.65,1261.23 1768.49,1269.19C1762.53,1276.89 1759.29,1284.95 1757.2,1290.02C1755.62,1293.84 1751.78,1304.1 1745.97,1319.63C1740.15,1335.17 1732.72,1355.15 1725.19,1375.47C1710.13,1416.11 1694.9,1457.51 1691.01,1468.77C1685.68,1484.23 1685.83,1501.36 1693.43,1515.99C1701.21,1530.96 1717.64,1541.66 1737.53,1541.91C1766.03,1542.27 1776.52,1542.01 1776.52,1542.01C1783.81,1541.82 1790.28,1537.16 1792.76,1530.3C1792.77,1530.27 1795.6,1522.57 1799.47,1515.26C1801.27,1511.85 1803.42,1508.56 1804.78,1506.88C1819.3,1506.31 1846.56,1506.52 1859.57,1506.89C1860.94,1508.75 1862.9,1511.85 1864.62,1515.15C1868.56,1522.69 1871.6,1530.62 1871.6,1530.62C1874.2,1537.5 1880.83,1542.08 1888.19,1542.08L1930.76,1542.08C1964.32,1542.08 1986.97,1504.8 1975.64,1470.06C1971.31,1456.74 1955.4,1411.83 1939.86,1368.58C1932.09,1346.95 1924.46,1325.9 1918.55,1309.84C1915.6,1301.81 1913.07,1295.04 1911.15,1290.01C1910.19,1287.49 1909.38,1285.41 1908.72,1283.75C1908.19,1282.46 1907.88,1281.31 1906.47,1278.82C1904.1,1274.66 1900.18,1268.8 1893.86,1263.44C1887.43,1257.99 1877.97,1253 1866.39,1253L1866.39,1253ZM1798.8,1288.48C1798.81,1288.48 1798.87,1288.5 1799.18,1288.5L1866.39,1288.5C1868.15,1288.5 1868.92,1288.83 1870.92,1290.53C1872.52,1291.89 1874.32,1294.3 1875.29,1295.9C1875.46,1296.28 1875.66,1296.7 1875.8,1297.03C1876.32,1298.33 1877.08,1300.27 1877.99,1302.67C1879.82,1307.46 1882.32,1314.16 1885.25,1322.11C1891.1,1338.02 1898.71,1359.01 1906.46,1380.59C1921.97,1423.73 1938.28,1469.92 1941.89,1481.05C1941.9,1481.07 1941.9,1481.08 1941.91,1481.1C1944.18,1488.09 1942.62,1494.5 1939.62,1499.34C1936.62,1504.19 1931.79,1506.59 1930.76,1506.59L1899.83,1506.59C1898.68,1504.07 1897.59,1501.59 1896.09,1498.71C1893.51,1493.79 1890.51,1488.56 1886.6,1483.73C1883.28,1479.62 1877.5,1472.68 1867.13,1471.66C1866.95,1471.65 1866.76,1471.64 1866.57,1471.64L1798.14,1471.69C1797.9,1471.69 1797.66,1471.71 1797.43,1471.74C1787.82,1472.94 1781.84,1479.04 1778.09,1483.42C1773.87,1488.35 1770.73,1493.7 1768.09,1498.68C1766.56,1501.58 1765.49,1504.06 1764.35,1506.58C1758.5,1506.6 1751.2,1506.59 1737.98,1506.42C1733.43,1506.37 1730.81,1505.55 1729.09,1504.5C1727.36,1503.45 1726.19,1502.05 1724.93,1499.63C1722.8,1495.52 1722.05,1487.65 1724.57,1480.36C1727.82,1470.94 1743.44,1428.39 1758.48,1387.81C1766,1367.52 1773.42,1347.57 1779.22,1332.08C1785.01,1316.6 1789.71,1304.31 1790.01,1303.59C1791.94,1298.91 1794.51,1293.58 1796.57,1290.92C1797.78,1289.35 1798.55,1288.69 1798.74,1288.56C1798.84,1288.5 1798.8,1288.49 1798.8,1288.49L1798.8,1288.48Z" style="fill:rgb(0,150,136);fill-rule:nonzero;"/>
        </g>
        <g id="path1233" transform="matrix(1,0,0,1,21.2132,-201.929)">
            <path d="M1816.41,1304.29L1814.48,1316.92C1811.59,1335.91 1801.28,1348.45 1790.2,1362.42C1779.12,1376.4 1767.14,1392.23 1766.95,1415.24C1766.78,1434.89 1780.24,1447.85 1789.93,1457.2C1791.82,1459.03 1793.59,1460.55 1795.21,1461.97L1797.65,1464.12L1867.2,1464.06L1869.62,1461.97C1871.87,1460.05 1874.21,1457.98 1876.59,1455.68C1887.37,1445.24 1899.41,1431.05 1900.18,1413C1901.29,1386.66 1884.5,1364.17 1870.22,1346.56C1860.86,1335.02 1839.6,1318 1827.41,1310.79L1816.41,1304.29ZM1829.54,1346.74C1837.66,1352.91 1848.27,1361.98 1851.51,1365.98C1862.12,1379.06 1872.27,1394.3 1871.68,1408.32C1871.35,1416.18 1864.86,1425.14 1857.52,1432.25C1856.54,1433.19 1855.51,1434.08 1854.5,1434.97L1810.91,1435.01C1810.32,1434.49 1809.69,1433.95 1809.14,1433.42C1801.76,1426.29 1795.39,1419.66 1795.47,1410.72C1795.58,1397.42 1802.11,1388.75 1810.54,1378.12C1817.33,1369.54 1825.23,1359.85 1829.54,1346.74L1829.54,1346.74Z" style="fill:rgb(255,186,73);fill-rule:nonzero;"/>
        </g>
    </g>
    <g transform="matrix(0.440278,0,0,0.440278,0.685538,187.378)">
        <text x="44.612px" y="514.009px" style="font-family:'ZillaSlabRegular', 'Zilla Slab';font-size:228.362px;fill:rgb(0,150,136);">helping manufacturers</text>
        <text x="2356.78px" y="514.009px" style="font-family:'ZillaSlab-SemiBold', 'Zilla Slab';font-weight:600;font-size:228.362px;fill:rgb(0,150,136);">digitalise</text>
    </g>
    <g transform="matrix(1.0077,0,0,1.0077,-14.5122,6.30545)">
        <text x="383.763px" y="534.69px" style="font-family:'ZillaSlab-Bold', 'Zilla Slab';font-weight:700;font-size:102.099px;fill:rgb(0,150,136);">nightingalehq.ai</text>
    </g>
</svg>
