<svg xmlns="http://www.w3.org/2000/svg" viewBox="0 0 500 500"><defs><style>.cls-1{isolation:isolate;}.cls-2{fill:#fff;}.cls-3{mix-blend-mode:multiply;}</style></defs><title>NGHQ_BIRDHQ_SQUARE_SVG_WHITE</title><g class="cls-1"><g id="Layer_1" data-name="Layer 1"><path class="cls-2" d="M85.1,493c-17.39,0-37-.44-40.29-.52a10.22,10.22,0,0,1-8.61-15.33c.32-.56,32.55-56.48,48.87-91.63C99.53,354.41,105.6,323.7,111.46,294c4.7-23.8,9.13-46.28,17.57-67.16,18.21-45.11,55.9-81.81,70.26-94.69-7.13-20-22.58-76.94,16.79-110.55,35.34-30.17,84.57-6.09,99,4.73C328.42,36.28,403,103.15,406.19,106a10.21,10.21,0,0,1,2.7,11.32,10,10,0,0,1-9.63,6.52l-100.65-1a10.23,10.23,0,0,1,.1-20.45h.11l73.44.75C345,78.82,310.76,48.61,302.87,42.72c-9-6.74-47.91-27.41-73.51-5.55-35.75,30.52-8.85,93.26-8.58,93.88a10.24,10.24,0,0,1-2.87,12c-.49.41-49.62,41.17-69.92,91.44-7.71,19.08-12,40.64-16.47,63.46-5.81,29.44-12.4,62.82-27.9,96.2-11.56,24.9-30.29,58.88-41.17,78.22,17,.24,38.72.36,45.66-.36,9.38-2.37,70-42.48,116.48-88a238.33,238.33,0,0,1-11.79-35.81c-9.57-38.29,2.89-144.33,44.38-183.13,14.19-13.27,30.71-17.39,47.76-11.88,16.12,5.2,27.14,16.45,31.88,32.52,14.5,49.23-32.35,136.6-70.24,182.92-5.24,6.41-11.1,12.94-17.38,19.49,9.06,16.58,18.62,24.4,25.9,24.4h52.37a10.23,10.23,0,1,1,0,20.45H275.1c-14.93,0-29-10.66-40.84-30-47.73,45.57-109.72,87.91-124.06,89.39C105.37,492.87,95.64,493,85.1,493ZM290.35,171.24c-6.68,0-12.92,2.88-19.2,8.75-31.89,29.81-47.75,126.27-38.51,163.23a237.06,237.06,0,0,0,7.52,24.67c3.71-4.08,7.26-8.16,10.59-12.23,35.39-43.26,78.18-124.39,66.45-164.19-2.85-9.69-8.74-15.68-18.54-18.84A27.05,27.05,0,0,0,290.35,171.24Z"/><g class="cls-3"><path class="cls-2" d="M462.84,283.48H435.39V226.37H381.85v57.11H354.4V150.24h27.45v54h53.54v-54h27.45Z"/><path class="cls-2" d="M465.17,366.62q0,18.67-6,32.44a55.69,55.69,0,0,1-16.74,22.1l22.14,17.39L447.05,454l-28.36-22.78a60,60,0,0,1-10.07.82,57.07,57.07,0,0,1-23-4.53,51.16,51.16,0,0,1-18-12.95A59.58,59.58,0,0,1,355.91,394a83.17,83.17,0,0,1-4.21-27.41v-5.86a84.42,84.42,0,0,1,4.16-27.36,60.52,60.52,0,0,1,11.67-20.68,50.36,50.36,0,0,1,17.94-13,60.5,60.5,0,0,1,45.94,0,50.42,50.42,0,0,1,17.93,13A60.52,60.52,0,0,1,461,333.4a84.15,84.15,0,0,1,4.16,27.36Zm-27.82-6q0-21-7.5-31.84t-21.41-10.89q-13.92,0-21.42,10.89t-7.5,31.84v6a77.22,77.22,0,0,0,2,18.44,41.17,41.17,0,0,0,5.67,13.45,24.67,24.67,0,0,0,9.11,8.24,26.47,26.47,0,0,0,12.35,2.79q13.9,0,21.32-11t7.41-31.94Z"/></g></g></g></svg>