<svg id="Layer_1" data-name="Layer 1" xmlns="http://www.w3.org/2000/svg" viewBox="0 0 400 400"><defs><style>.cls-1{fill:#fff;}</style></defs><title>NGHQ</title><path class="cls-1" d="M245.45,52.27a48.28,48.28,0,0,1-14.34,34.46,40.34,40.34,0,0,1-21.23,11.08V111a7.68,7.68,0,0,1-15.36,0V68.11a7.68,7.68,0,0,1,15.36,0V82a25.51,25.51,0,0,0,10.52-6.32,32.77,32.77,0,0,0,9.69-23.44,30.09,30.09,0,1,0-46.9,25.19,7.68,7.68,0,0,1-8.63,12.71,45.61,45.61,0,1,1,70.89-37.9Z"/><path class="cls-1" d="M141.22,341.07l24.54-53.49h67.61l22.73,53.15Zm28.12-47.91-19.42,42.31,97.74-.3-18-42Z"/><path class="cls-1" d="M307.86,284.22c-6.82-21-55.16-156.13-58.06-161.13s-9.89-14.43-21.12-14.43H171.07c-12.34,0-18.4,13.81-21.92,22.32S98.86,265.59,92.73,283.36C86,303,94.12,325.57,118.45,325.88s32.86.09,32.86.09,10.67-29.49,20.82-30c13.8-.74,44.53-.41,55.17,0,8.83.34,20.06,30.09,20.06,30.09h36.49C300.11,326,314.72,305.2,307.86,284.22Zm-86.62-48.66c-6.52,5.69-17.85,13-19.06,19.06s1.62,19.88,1.62,19.88S174.62,262.34,171,238.42s12.55-30,19.06-36.07,10.92-10.13,8.1-17.44a56.67,56.67,0,0,0-7.31-13s28.77,12.16,34.87,28.81S227.72,229.91,221.24,235.56Z"/><path class="cls-1" d="M141.09,328.83c-5.21,0-12.6,0-22.68-.17-13.64-.17-21.08-6.71-24.92-12.16-6.36-9.05-7.63-21.78-3.4-34.05,6.22-18,53-144.15,56.48-152.52,3.23-7.82,9.93-24.06,24.5-24.06h57.61c13,0,20.8,11.07,23.54,15.83,3.24,5.6,52,142.44,58.29,161.66a37.16,37.16,0,0,1-5.08,33.29c-5.61,7.72-13.47,12.16-21.59,12.16H247.36a2.79,2.79,0,0,1-2.61-1.81c-5.11-13.53-13.39-28.12-17.56-28.28-11.29-.44-41.52-.72-54.9,0-5.73.31-14.18,16.67-18.36,28.2a2.82,2.82,0,0,1-2.55,1.84S148.34,328.83,141.09,328.83Zm30-217.38c-9.52,0-14.92,9.9-19.34,20.6-3.41,8.34-50.16,134.24-56.36,152.22-3.6,10.43-2.57,21.54,2.69,29,4.43,6.29,11.49,9.68,20.43,9.8,17.81.23,27.2.15,30.87.12,3-7.76,12.2-29.5,22.62-30.06,13.53-.74,44-.45,55.43,0,9.21.36,18.37,21.21,21.86,30.09h34.57c6.21,0,12.6-3.68,17.07-9.86a31.56,31.56,0,0,0,4.3-28.28h0c-7.08-21.79-54.92-155.31-57.83-160.6-2.25-3.91-8.6-13-18.7-13ZM203.8,277.29a2.87,2.87,0,0,1-1.07-.21c-1.26-.52-30.68-13.06-34.52-38.24-3.26-21.29,8.26-29.77,15.89-35.37a46,46,0,0,0,4-3.17c6.84-6.44,9.42-9.15,7.4-14.38a54.62,54.62,0,0,0-6.9-12.28,2.78,2.78,0,0,1,3.27-4.29c1.22.51,30,12.84,36.41,30.42,6.81,18.66,1.44,32.07-5.23,37.9h0c-1.63,1.41-3.54,2.93-5.53,4.51-5.31,4.19-11.91,9.41-12.62,13-.93,4.55.85,15.1,1.61,18.78a2.78,2.78,0,0,1-2.73,3.35Zm-5.38-98.46a53.38,53.38,0,0,1,2.3,5.08c3.46,8.94-2.08,14.15-8.49,20.19A51.69,51.69,0,0,1,187.4,208c-7.32,5.38-16.42,12.08-13.68,30,2.5,16.39,18.27,27.06,26.37,31.53-.74-4.76-1.46-11.41-.64-15.47,1.1-5.57,8-11,14.63-16.26,1.91-1.51,3.76-3,5.32-4.34,5.34-4.66,9.5-15.77,3.66-31.77C219.48,191.92,207.05,183.61,198.42,178.83Zm22.82,56.73h0Z"/><path class="cls-1" d="M280.06,390.62H117.69l.17-25A27.66,27.66,0,0,1,145.43,338H252.32a27.65,27.65,0,0,1,27.56,27.57Z"/><path class="cls-1" d="M282.87,393.41h-168l.19-27.82a30.39,30.39,0,0,1,30.36-30.34H252.32a30.39,30.39,0,0,1,30.35,30.36ZM120.5,387.83H277.25l-.16-22.2a24.81,24.81,0,0,0-24.77-24.8H145.43a24.81,24.81,0,0,0-24.78,24.78Z"/></svg>