<svg xmlns="http://www.w3.org/2000/svg" viewBox="0 0 1122 340.86"><defs><style>.cls-1{fill:#fff;}</style></defs><title>NGHQ_BIRDTEXT_WHITE_SVG_1</title><g id="Layer_2" data-name="Layer 2"><g id="Layer_2-2" data-name="Layer 2"><path class="cls-1" d="M225.31,299.84V163.39h19.85l29.93,71.37V163.39H298V299.84H278.88L249,224.15v75.69Z"/><path class="cls-1" d="M313.35,192.33V168.47h25.53v23.86Zm0,107.51V201h25.53v98.87Z"/><path class="cls-1" d="M371,274.16c0,1.21.88,2.22,2.62,3a29.93,29.93,0,0,0,6.78,2c2.78.53,5.84,1.08,9.2,1.63s6.73,1.28,10.12,2.16A58.4,58.4,0,0,1,409,286.2a17.48,17.48,0,0,1,6.78,5.31,12.71,12.71,0,0,1,2.62,7.95,30,30,0,0,1-1.86,11,20.08,20.08,0,0,1-4.93,7.58,23.33,23.33,0,0,1-7.61,4.58,41.09,41.09,0,0,1-9.24,2.39,77.37,77.37,0,0,1-10.46.64q-36.43,0-36.44-17.8a21.31,21.31,0,0,1,2.88-10.42,25.73,25.73,0,0,1,7.5-8.52,41.52,41.52,0,0,1-6-3.75c-1.92-1.44-2.87-2.82-2.87-4.13q0-4.32,10.07-17.12-7.73-14.1-7.73-28.34a52.78,52.78,0,0,1,1.71-13.67,39.78,39.78,0,0,1,5.19-11.71A24.88,24.88,0,0,1,368,201.8a29.31,29.31,0,0,1,13.75-3.1q11.67,0,17.58,6.29,5.52-6.3,18.56-6.29h3.18L419,217q-7.5,0-10.83,3.33,3.18,5.69,3.18,17.2a40.41,40.41,0,0,1-2,12.8,34.46,34.46,0,0,1-5.76,10.76,26.07,26.07,0,0,1-9.62,7.42,30.41,30.41,0,0,1-13,2.73,24.22,24.22,0,0,1-3.41-.3c-1.36-.2-2.5-.41-3.41-.61l-1.36-.22A15.9,15.9,0,0,0,371,274.16Zm2.28,19.69h-1.82q-3.4,5.38-3.41,9.47,0,4.47,16.82,4.47h.45q8.64.07,8.64-5.15a5.77,5.77,0,0,0-1-3.29,6.87,6.87,0,0,0-2.91-2.39,32.39,32.39,0,0,0-3.83-1.52,24.24,24.24,0,0,0-4.62-.9c-1.82-.21-3.27-.36-4.36-.46S374.84,293.9,373.28,293.85ZM381.16,252q6.21,0,6.21-17.58,0-18-5.84-18a4.3,4.3,0,0,0-2.53.76,5,5,0,0,0-1.75,2.31,23.25,23.25,0,0,0-1.06,3.18,24.78,24.78,0,0,0-.6,4.09c-.13,1.64-.21,3.06-.23,4.24s0,2.67,0,4.44Q375.32,252,381.16,252Z"/><path class="cls-1" d="M426.39,299.84V163.47h25.53V208a29.36,29.36,0,0,1,8.82-6.75,23.34,23.34,0,0,1,10.57-2.57,14.5,14.5,0,0,1,9.36,3.33,20.44,20.44,0,0,1,6.14,8.18,26.09,26.09,0,0,1,2,10v79.63H463.28v-73c0-.2,0-.64,0-1.32s0-1.24,0-1.67-.05-1-.08-1.67a5.28,5.28,0,0,0-.26-1.63,9.19,9.19,0,0,0-.61-1.29,2.24,2.24,0,0,0-1-1,3.66,3.66,0,0,0-1.55-.3,5.79,5.79,0,0,0-3.26,1.21,15.73,15.73,0,0,0-2.5,2c-.51.56-1.21,1.37-2.12,2.43v76.14Z"/><path class="cls-1" d="M504.27,265.9V218H497V201h7.27v-32.5H529.8V201h12.27V218H529.8v54c0,2.73.51,4.77,1.52,6.1s2.8,2,5.37,2a51.75,51.75,0,0,0,7.43-.45v19.77Q539.13,301,528,301a28.78,28.78,0,0,1-8.07-1.06,19.81,19.81,0,0,1-6.06-2.85,16.91,16.91,0,0,1-4.24-4.5,26.68,26.68,0,0,1-2.8-5.57,34.52,34.52,0,0,1-1.59-6.63c-.38-2.53-.64-4.88-.76-7.05S504.27,268.68,504.27,265.9Z"/><path class="cls-1" d="M553.29,192.33V168.47h25.53v23.86Zm0,107.51V201h25.53v98.87Z"/><path class="cls-1" d="M593.21,299.84V201h25.54v7a27.49,27.49,0,0,1,8.75-6.67,24,24,0,0,1,10.64-2.5,14.6,14.6,0,0,1,9.36,3.3,20.19,20.19,0,0,1,6.13,8.11,25.54,25.54,0,0,1,2,10v79.7H630.11V224.61c0-4.4-1.42-6.59-4.24-6.59a4,4,0,0,0-1,.11,3.82,3.82,0,0,0-1,.38c-.33.18-.62.33-.88.45a5,5,0,0,0-.91.65l-.79.68c-.18.15-.44.42-.8.79s-.58.64-.68.76-.3.37-.6.72l-.53.61v76.67Z"/><path class="cls-1" d="M687.08,274.16c0,1.21.87,2.22,2.62,3a29.93,29.93,0,0,0,6.78,2c2.77.53,5.84,1.08,9.2,1.63s6.73,1.28,10.12,2.16A58.4,58.4,0,0,1,725,286.2a17.48,17.48,0,0,1,6.78,5.31,12.7,12.7,0,0,1,2.61,7.95,30.22,30.22,0,0,1-1.85,11,20.08,20.08,0,0,1-4.93,7.58,23.33,23.33,0,0,1-7.61,4.58A41.09,41.09,0,0,1,710.8,325a77.48,77.48,0,0,1-10.46.64q-36.44,0-36.44-17.8a21.31,21.31,0,0,1,2.88-10.42,25.73,25.73,0,0,1,7.5-8.52,41.52,41.52,0,0,1-6-3.75q-2.88-2.16-2.88-4.13,0-4.32,10.08-17.12-7.72-14.1-7.73-28.34a52.78,52.78,0,0,1,1.71-13.67,39.52,39.52,0,0,1,5.19-11.71,24.81,24.81,0,0,1,9.43-8.41,29.28,29.28,0,0,1,13.75-3.1q11.67,0,17.58,6.29,5.52-6.3,18.56-6.29h3.18L735,217q-7.5,0-10.83,3.33,3.18,5.69,3.18,17.2a40.41,40.41,0,0,1-2,12.8,34.46,34.46,0,0,1-5.76,10.76,26.16,26.16,0,0,1-9.62,7.42,30.44,30.44,0,0,1-13,2.73,24.22,24.22,0,0,1-3.41-.3c-1.37-.2-2.5-.41-3.41-.61l-1.37-.22A16.09,16.09,0,0,0,687.08,274.16Zm2.28,19.69h-1.82q-3.42,5.38-3.41,9.47,0,4.47,16.82,4.47h.45q8.64.07,8.64-5.15a5.77,5.77,0,0,0-1-3.29,6.93,6.93,0,0,0-2.91-2.39,32.39,32.39,0,0,0-3.83-1.52,24.24,24.24,0,0,0-4.62-.9c-1.82-.21-3.27-.36-4.36-.46S690.92,293.9,689.36,293.85ZM697.23,252q6.22,0,6.22-17.58,0-18-5.84-18a4.3,4.3,0,0,0-2.53.76,5,5,0,0,0-1.75,2.31,23.25,23.25,0,0,0-1.06,3.18,23.75,23.75,0,0,0-.6,4.09c-.13,1.64-.21,3.06-.23,4.24s0,2.67,0,4.44Q691.4,252,697.23,252Z"/><path class="cls-1" d="M781.56,299.84l-2.5-10.23q-2.2,6.9-7.2,9.66A25.43,25.43,0,0,1,759.44,302a20.53,20.53,0,0,1-9.55-2.12,16.42,16.42,0,0,1-6.4-5.73,27,27,0,0,1-3.41-7.72,33.3,33.3,0,0,1-1.1-8.68,40.46,40.46,0,0,1,1.06-9.54,38.77,38.77,0,0,1,2.69-7.77,26.23,26.23,0,0,1,4.54-6.48,50.66,50.66,0,0,1,5.69-5.26,49.4,49.4,0,0,1,7.08-4.47q4.32-2.31,7.73-3.87t8.56-3.67V228.4q0-5.24-1.29-7.81a4.52,4.52,0,0,0-4.39-2.57,6.17,6.17,0,0,0-3.45.87,4.64,4.64,0,0,0-1.86,2.61,17.46,17.46,0,0,0-.68,3.15,36.83,36.83,0,0,0-.15,3.75V234H739.74q0-17,8.56-26.17t24.85-9.13A27.8,27.8,0,0,1,793.07,207a26.32,26.32,0,0,1,8.56,19.62v47a117.28,117.28,0,0,0,3.26,26.29Zm-5.15-22.35V253.17q-12.58,10.16-12.58,22.27a10.75,10.75,0,0,0,1.17,5.19,4.17,4.17,0,0,0,4,2.16,5.71,5.71,0,0,0,3.15-1,11.64,11.64,0,0,0,2.23-1.78C774.81,279.49,775.5,278.65,776.41,277.49Z"/><path class="cls-1" d="M815.8,299.84V163.47h25.53V299.84Z"/><path class="cls-1" d="M854.52,274.16V232.11q0-15.77,7.5-24.59t22.88-8.82q15.45,0,22.92,8.79t7.46,24.62v20.45H880.05v21.9q0,8.34,4.85,8.33,5.29,0,5.3-8.94V263h25.08v11.14q0,12.34-8.94,20.11a33.4,33.4,0,0,1-42.88,0A25.42,25.42,0,0,1,854.52,274.16Zm25.53-35H890V225.52q0-7.5-5.07-7.5-4.86,0-4.85,7.5Z"/><path class="cls-1" d="M1019.45,299.84H996.72V252.56H952.4v47.28H929.67V189.53H952.4v44.7h44.32v-44.7h22.73Z"/><path class="cls-1" d="M1122,247.19q0,15.45-5,26.85a46,46,0,0,1-13.86,18.3l18.33,14.39L1107,319.54l-23.49-18.87a49,49,0,0,1-8.33.69,47.1,47.1,0,0,1-19-3.76,42.43,42.43,0,0,1-14.88-10.72,49.2,49.2,0,0,1-9.74-17,69.08,69.08,0,0,1-3.48-22.69v-4.85a69.71,69.71,0,0,1,3.44-22.66,50.16,50.16,0,0,1,9.66-17.12A41.62,41.62,0,0,1,1056,191.77a50.08,50.08,0,0,1,38,0,41.62,41.62,0,0,1,14.85,10.79,50.16,50.16,0,0,1,9.66,17.12,69.7,69.7,0,0,1,3.45,22.66Zm-23-5q0-17.35-6.21-26.37t-17.73-9q-11.52,0-17.73,9t-6.21,26.37v5a64.09,64.09,0,0,0,1.63,15.26,34.17,34.17,0,0,0,4.69,11.14,20.5,20.5,0,0,0,7.54,6.82,22,22,0,0,0,10.23,2.31q11.52,0,17.65-9.09t6.14-26.44Z"/><path class="cls-1" d="M35.26,340.86c-12.2,0-25.92-.31-28.26-.36a7.18,7.18,0,0,1-6-10.76c.23-.39,22.83-39.6,34.28-64.25,10.14-21.84,14.39-43.38,18.5-64.21,3.29-16.68,6.41-32.45,12.32-47.09,12.77-31.63,39.21-57.37,49.27-66.4-5-14.05-15.83-54,11.78-77.53,24.78-21.15,59.31-4.26,69.45,3.32,9.33,7,61.65,53.86,63.87,55.85a7.19,7.19,0,0,1,1.9,7.94,7.05,7.05,0,0,1-6.76,4.57L185,81.22a7.17,7.17,0,0,1,.07-14.34h.07l51.5.53C217.52,50.38,193.5,29.2,188,25.06c-6.32-4.72-33.58-19.21-51.55-3.89-25.18,21.5-6.21,65.4-6,65.83a7.19,7.19,0,0,1-2,8.44c-.34.28-34.8,28.87-49,64.12C74,173,71,188.06,67.81,204.06c-4.08,20.65-8.7,44.06-19.57,67.47C40.13,289,27,312.82,19.37,326.38c12,.17,27.15.25,32-.25,6.58-1.66,49.08-29.79,81.68-61.74a167.69,167.69,0,0,1-8.26-25.11c-6.72-26.85,2-101.23,31.12-128.42,10-9.31,21.54-12.19,33.49-8.34,11.31,3.65,19,11.53,22.36,22.81C222,159.85,189.1,221.12,162.52,253.6c-3.67,4.5-7.78,9.08-12.18,13.67,6.35,11.63,13.06,17.11,18.16,17.11h36.73a7.18,7.18,0,0,1,0,14.35H168.5c-10.47,0-20.36-7.48-28.64-21-33.48,32-77,61.65-87,62.69C49.47,340.75,42.65,340.86,35.26,340.86ZM179.2,115.19c-4.69,0-9.07,2-13.48,6.14-22.36,20.91-33.48,88.55-27,114.47A168.51,168.51,0,0,0,144,253.1q3.91-4.29,7.43-8.58c24.82-30.33,54.83-87.22,46.6-115.14-2-6.8-6.13-11-13-13.21A18.85,18.85,0,0,0,179.2,115.19Z"/></g></g></svg>