<svg xmlns="http://www.w3.org/2000/svg" viewBox="0 0 359.21 465.88"><defs><style>.cls-1{fill:#fff;}</style></defs><title>NGHQ_BIRD_WHITE_SVG_3</title><g id="Layer_2" data-name="Layer 2"><g id="Layer_2-2" data-name="Layer 2"><path class="cls-1" d="M48.17,465.88c-16.66,0-35.41-.42-38.6-.49a9.81,9.81,0,0,1-8.26-14.7c.31-.54,31.21-54.14,46.85-87.83C62,333,67.83,303.59,73.45,275.12c4.5-22.81,8.76-44.35,16.84-64.37,17.46-43.23,53.58-78.41,67.35-90.76-6.83-19.2-21.64-73.75,16.1-106,33.85-28.91,81.06-5.84,94.91,4.53,12.75,9.53,84.26,73.62,87.3,76.35A9.8,9.8,0,0,1,349.41,112h-.11l-96.47-1a9.8,9.8,0,0,1,.1-19.6H253l70.39.72c-26.13-23.27-58.95-52.23-66.52-57.88C248.27,27.8,211,8,186.46,28.94c-34.41,29.37-8.49,89.38-8.23,90a9.79,9.79,0,0,1-2.74,11.53c-.48.39-47.57,39.46-67,87.64-7.39,18.29-11.47,39-15.79,60.83-5.57,28.22-11.89,60.21-26.74,92.2-11.08,23.87-29,56.44-39.47,75,16.34.23,37.11.34,43.77-.35,9-2.26,67.08-40.72,111.64-84.39A229.1,229.1,0,0,1,170.59,327c-9.18-36.69,2.76-138.34,42.53-175.52,13.61-12.72,29.44-16.66,45.78-11.4,15.45,5,26,15.77,30.56,31.18,13.9,47.18-31,130.93-67.33,175.32-5,6.14-10.63,12.41-16.65,18.69,8.68,15.89,17.84,23.38,24.82,23.38h50.2a9.81,9.81,0,0,1,0,19.61H230.3c-14.31,0-27.83-10.22-39.14-28.73C145.41,423.24,86,463.83,72.25,465.25,67.61,465.73,58.28,465.88,48.17,465.88ZM244.92,157.45c-6.41,0-12.39,2.75-18.41,8.38-30.56,28.58-45.76,121-36.9,156.46a229.06,229.06,0,0,0,7.2,23.64q5.34-5.85,10.15-11.72C240.89,292.75,281.9,215,270.65,176.84c-2.73-9.29-8.38-15-17.77-18.06A25.93,25.93,0,0,0,244.92,157.45Z"/></g></g></svg>