<svg xmlns="http://www.w3.org/2000/svg" viewBox="0 0 449.23 507.39"><defs><style>.cls-1{isolation:isolate;}.cls-2{fill:#fff;}.cls-3{mix-blend-mode:multiply;}</style></defs><title>NGHQ_BIRD_WHITE_SVG_2</title><g class="cls-1"><g id="Layer_2" data-name="Layer 2"><g id="Layer_2-2" data-name="Layer 2"><path class="cls-2" d="M52.48,507.39c-18.15,0-38.58-.46-42.06-.54a10.68,10.68,0,0,1-9-16c.34-.58,34-58.95,51-95.65,15.1-32.51,21.42-64.56,27.54-95.56,4.91-24.84,9.54-48.31,18.35-70.1,19-47.09,58.35-85.4,73.34-98.85-7.44-20.91-23.57-80.31,17.53-115.39,36.88-31.5,88.28-6.36,103.37,4.93,13.89,10.38,91.77,80.18,95.08,83.14a10.7,10.7,0,0,1,2.82,11.82,10.46,10.46,0,0,1-10.06,6.8l-105.06-1.07a10.68,10.68,0,0,1,.1-21.35h.12l76.66.79C323.79,75,288,43.47,279.8,37.32c-9.4-7-50-28.61-76.73-5.8-37.32,31.86-9.24,97.35-8.95,98a10.7,10.7,0,0,1-3,12.54c-.52.43-51.8,43-73,95.45-8,19.92-12.49,42.42-17.19,66.25C94.87,334.5,88,369.34,71.81,404.19c-12.06,26-31.62,61.46-43,81.65,17.79.25,40.41.37,47.65-.38,9.8-2.47,73.06-44.34,121.59-91.9a251,251,0,0,1-12.3-37.38c-10-40,3-150.67,46.32-191.16,14.83-13.86,32.07-18.16,49.86-12.41,16.83,5.43,28.34,17.17,33.29,33.95C330.38,238,281.48,329.15,241.92,377.5c-5.47,6.69-11.58,13.52-18.14,20.36,9.46,17.3,19.44,25.46,27,25.46h54.68a10.68,10.68,0,0,1,0,21.35H250.81c-15.58,0-30.3-11.12-42.62-31.28C158.36,461,93.65,505.15,78.68,506.7,73.64,507.22,63.48,507.39,52.48,507.39ZM266.74,171.48c-7,0-13.5,3-20.05,9.13C213.4,211.73,196.85,312.42,206.49,351a251.19,251.19,0,0,0,7.85,25.75c3.88-4.25,7.58-8.51,11.06-12.76C262.34,318.83,307,234.15,294.77,192.6c-3-10.12-9.14-16.37-19.36-19.67A28.28,28.28,0,0,0,266.74,171.48Z"/><g class="cls-3"><path class="cls-2" d="M446.79,288.64H418.14V229H362.25v59.61H333.59V149.55h28.66v56.36h55.89V149.55h28.65Z"/><path class="cls-2" d="M449.23,375.43q0,19.49-6.31,33.86a58,58,0,0,1-17.48,23.07l23.12,18.15-18.24,16.15L400.7,442.87a63,63,0,0,1-10.51.86,59.59,59.59,0,0,1-24-4.73,53.48,53.48,0,0,1-18.77-13.51A62.19,62.19,0,0,1,335.17,404a86.9,86.9,0,0,1-4.39-28.61v-6.11a88,88,0,0,1,4.34-28.57,63.16,63.16,0,0,1,12.18-21.58A52.61,52.61,0,0,1,366,305.55a63.25,63.25,0,0,1,48,0,52.58,52.58,0,0,1,18.72,13.62,63.16,63.16,0,0,1,12.18,21.58,87.94,87.94,0,0,1,4.35,28.57Zm-29-6.3q0-21.88-7.83-33.25T390,324.52q-14.52,0-22.35,11.36t-7.83,33.25v6.3a81.06,81.06,0,0,0,2.05,19.25,43,43,0,0,0,5.92,14,25.72,25.72,0,0,0,9.51,8.6,27.66,27.66,0,0,0,12.89,2.91q14.52,0,22.26-11.46t7.74-33.34Z"/></g></g></g></g></svg>