<svg xmlns="http://www.w3.org/2000/svg" viewBox="0 0 824.81 473.03"><defs><style>.cls-1{fill:#fff;}</style></defs><title>NGHQ_BIRDTEXT_WHITECENTRE_SVG_2</title><g id="Layer_2" data-name="Layer 2"><g id="Layer_2-2" data-name="Layer 2"><path class="cls-1" d="M0,449.27V323.76H18.26l27.53,65.65V323.76h21V449.27H49.27L21.81,379.65v69.62Z"/><path class="cls-1" d="M81,350.38V328.43h23.48v21.95Zm0,98.89V358.33h23.48v90.94Z"/><path class="cls-1" d="M134,425.65c0,1.11.8,2,2.41,2.78a26.94,26.94,0,0,0,6.23,1.85q3.84.74,8.47,1.5t9.31,2a53.82,53.82,0,0,1,8.5,3,16.06,16.06,0,0,1,6.23,4.87,11.67,11.67,0,0,1,2.41,7.32,27.62,27.62,0,0,1-1.71,10.14,18.58,18.58,0,0,1-4.53,7,21.61,21.61,0,0,1-7,4.22,37.84,37.84,0,0,1-8.5,2.19,70.55,70.55,0,0,1-9.62.59q-33.53,0-33.52-16.37a19.52,19.52,0,0,1,2.65-9.58,23.52,23.52,0,0,1,6.89-7.84,38.84,38.84,0,0,1-5.5-3.45c-1.77-1.33-2.65-2.59-2.65-3.8q0-4,9.27-15.75a53.73,53.73,0,0,1-7.11-26.07,48.55,48.55,0,0,1,1.57-12.58,36.65,36.65,0,0,1,4.77-10.76,22.86,22.86,0,0,1,8.68-7.74,27,27,0,0,1,12.65-2.85q10.72,0,16.17,5.78,5.08-5.79,17.07-5.78h2.93l-2,16.79q-6.9,0-10,3.07,2.93,5.22,2.93,15.82a37.19,37.19,0,0,1-1.85,11.77,31.62,31.62,0,0,1-5.3,9.9,24.09,24.09,0,0,1-8.85,6.83,28,28,0,0,1-12,2.51,23,23,0,0,1-3.13-.28c-1.26-.19-2.3-.37-3.14-.56l-1.25-.21A15,15,0,0,0,134,425.65Zm2.09,18.11h-1.67q-3.13,5-3.14,8.72,0,4.11,15.48,4.11h.41q7.95.06,7.95-4.74a5.27,5.27,0,0,0-.91-3,6.38,6.38,0,0,0-2.68-2.2,28.83,28.83,0,0,0-3.52-1.39,22.62,22.62,0,0,0-4.25-.84l-4-.42Q138.26,443.84,136.1,443.76Zm7.25-38.53q5.72,0,5.72-16.17,0-16.59-5.37-16.59a4.08,4.08,0,0,0-2.34.7,4.68,4.68,0,0,0-1.6,2.12,21.85,21.85,0,0,0-1,2.93,21.53,21.53,0,0,0-.56,3.77q-.18,2.26-.21,3.9c0,1.09,0,2.45,0,4.07Q138,405.23,143.35,405.23Z"/><path class="cls-1" d="M185,449.27V323.83h23.48v41a27,27,0,0,1,8.12-6.21,21.49,21.49,0,0,1,9.72-2.36,13.37,13.37,0,0,1,8.61,3.06,18.83,18.83,0,0,1,5.64,7.53,23.84,23.84,0,0,1,1.85,9.2v73.24H218.89V382.16c0-.19,0-.59,0-1.22s0-1.14,0-1.53-.05-.91-.07-1.54a5.22,5.22,0,0,0-.24-1.5,9.49,9.49,0,0,0-.56-1.18,2.09,2.09,0,0,0-.94-.9,3.29,3.29,0,0,0-1.43-.28,5.36,5.36,0,0,0-3,1.11,14.28,14.28,0,0,0-2.3,1.88c-.46.51-1.11,1.26-1.95,2.23v70Z"/><path class="cls-1" d="M256.6,418.05V374h-6.69V358.33h6.69v-29.9h23.48v29.9h11.29V374H280.08v49.68a9.27,9.27,0,0,0,1.4,5.61c.92,1.24,2.57,1.85,4.94,1.85a46.83,46.83,0,0,0,6.83-.42v18.19q-4.59,1.4-14.84,1.4a26.19,26.19,0,0,1-7.42-1,18.27,18.27,0,0,1-5.58-2.61,15.5,15.5,0,0,1-3.9-4.15,24.85,24.85,0,0,1-2.58-5.12,31.41,31.41,0,0,1-1.46-6.1q-.53-3.48-.7-6.48C256.65,422.88,256.6,420.61,256.6,418.05Z"/><path class="cls-1" d="M301.68,350.38V328.43h23.49v21.95Zm0,98.89V358.33h23.49v90.94Z"/><path class="cls-1" d="M338.41,449.27V358.33H361.9v6.41a25.39,25.39,0,0,1,8-6.14,22.1,22.1,0,0,1,9.8-2.3,13.43,13.43,0,0,1,8.6,3,18.54,18.54,0,0,1,5.65,7.45,23.61,23.61,0,0,1,1.84,9.17v73.31H372.35v-69.2q0-6.06-3.9-6.06a3.81,3.81,0,0,0-.87.1,3.63,3.63,0,0,0-.91.35l-.8.42a4.24,4.24,0,0,0-.84.59l-.73.63a9.69,9.69,0,0,0-.73.73c-.33.35-.54.58-.63.7l-.56.66-.48.56v70.52Z"/><path class="cls-1" d="M424.76,425.65c0,1.11.8,2,2.4,2.78a26.88,26.88,0,0,0,6.24,1.85q3.83.74,8.46,1.5c3.09.51,6.2,1.17,9.31,2a53.82,53.82,0,0,1,8.5,3,16,16,0,0,1,6.24,4.87,11.72,11.72,0,0,1,2.4,7.32,27.62,27.62,0,0,1-1.71,10.14,18.34,18.34,0,0,1-4.53,7,21.5,21.5,0,0,1-7,4.22,37.84,37.84,0,0,1-8.5,2.19A70.44,70.44,0,0,1,437,473q-33.52,0-33.52-16.37a19.52,19.52,0,0,1,2.65-9.58,23.44,23.44,0,0,1,6.9-7.84,38.93,38.93,0,0,1-5.51-3.45c-1.76-1.33-2.65-2.59-2.65-3.8q0-4,9.27-15.75A53.73,53.73,0,0,1,407,390.17a49,49,0,0,1,1.57-12.58,36.67,36.67,0,0,1,4.78-10.76,22.83,22.83,0,0,1,8.67-7.74,27,27,0,0,1,12.65-2.85q10.74,0,16.17,5.78,5.08-5.79,17.07-5.78h2.93L468.87,373q-6.9,0-10,3.07,2.93,5.22,2.93,15.82A37.19,37.19,0,0,1,460,403.69a31.59,31.59,0,0,1-5.29,9.9,24.09,24.09,0,0,1-8.85,6.83,28.08,28.08,0,0,1-11.95,2.51,23,23,0,0,1-3.14-.28c-1.26-.19-2.3-.37-3.14-.56l-1.25-.21A14.74,14.74,0,0,0,424.76,425.65Zm2.09,18.11h-1.68q-3.14,5-3.13,8.72,0,4.11,15.47,4.11h.42q7.94.06,7.94-4.74a5.34,5.34,0,0,0-.9-3,6.41,6.41,0,0,0-2.69-2.2,28.21,28.21,0,0,0-3.52-1.39,22.45,22.45,0,0,0-4.25-.84l-4-.42Q429,443.84,426.85,443.76Zm7.24-38.53q5.71,0,5.72-16.17,0-16.59-5.37-16.59a4,4,0,0,0-2.33.7,4.55,4.55,0,0,0-1.6,2.12,20.56,20.56,0,0,0-1,2.93A22.52,22.52,0,0,0,429,382q-.17,2.26-.21,3.9c0,1.09,0,2.45,0,4.07Q428.73,405.23,434.09,405.23Z"/><path class="cls-1" d="M511.66,449.27l-2.3-9.41q-2,6.34-6.62,8.89a23.45,23.45,0,0,1-11.43,2.54,18.82,18.82,0,0,1-8.78-2,15.05,15.05,0,0,1-5.89-5.26A25.13,25.13,0,0,1,473.5,437a31,31,0,0,1-1-8,37.42,37.42,0,0,1,1-8.78,35.47,35.47,0,0,1,2.47-7.14,23.85,23.85,0,0,1,4.18-6,40.11,40.11,0,0,1,11.75-9c2.64-1.41,5-2.6,7.11-3.55s4.71-2.08,7.87-3.38v-7.67a16.73,16.73,0,0,0-1.19-7.18,4.16,4.16,0,0,0-4-2.36,5.62,5.62,0,0,0-3.17.8,4.24,4.24,0,0,0-1.71,2.4,16.25,16.25,0,0,0-.62,2.89,31.72,31.72,0,0,0-.14,3.45v5.16H473.19q0-15.68,7.87-24.08t22.86-8.39a25.6,25.6,0,0,1,18.33,7.59,24.25,24.25,0,0,1,7.88,18.05v43.21a107.54,107.54,0,0,0,3,24.18Zm-4.74-20.56V406.34q-11.57,9.35-11.57,20.49a9.83,9.83,0,0,0,1.08,4.77,3.82,3.82,0,0,0,3.66,2,5.19,5.19,0,0,0,2.89-.94A11.08,11.08,0,0,0,505,431C505.46,430.55,506.08,429.78,506.92,428.71Z"/><path class="cls-1" d="M543.16,449.27V323.83h23.48V449.27Z"/><path class="cls-1" d="M578.77,425.65V387q0-14.49,6.9-22.62t21-8.11q14.22,0,21.08,8.08T634.66,387v18.81H602.25v20.14q0,7.68,4.46,7.67,4.89,0,4.88-8.22v-10h23.07v10.25a23.37,23.37,0,0,1-8.22,18.5,30.75,30.75,0,0,1-39.45,0A23.38,23.38,0,0,1,578.77,425.65Zm23.48-32.2h9.13V380.91c0-4.6-1.55-6.9-4.67-6.9s-4.46,2.3-4.46,6.9Z"/><path class="cls-1" d="M730.48,449.27H709.57V405.78H668.81v43.49H647.9V347.8h20.91v41.12h40.76V347.8h20.91Z"/><path class="cls-1" d="M824.81,400.84q0,14.21-4.6,24.7a42.34,42.34,0,0,1-12.75,16.83l16.87,13.24L811,467.39,789.41,450a46.59,46.59,0,0,1-7.66.62,43.48,43.48,0,0,1-17.5-3.45,39,39,0,0,1-13.69-9.86,45.42,45.42,0,0,1-9-15.64,63.61,63.61,0,0,1-3.2-20.87v-4.46a64.23,64.23,0,0,1,3.17-20.84,45.93,45.93,0,0,1,8.89-15.75,38.31,38.31,0,0,1,13.65-9.93,46.08,46.08,0,0,1,35,0,38.35,38.35,0,0,1,13.66,9.93,45.91,45.91,0,0,1,8.88,15.75,64,64,0,0,1,3.17,20.84Zm-21.18-4.6q0-16-5.72-24.25t-16.3-8.3q-10.61,0-16.31,8.3t-5.72,24.25v4.6a59.14,59.14,0,0,0,1.5,14,31.43,31.43,0,0,0,4.32,10.24,18.87,18.87,0,0,0,6.94,6.28,20.26,20.26,0,0,0,9.41,2.12q10.59,0,16.23-8.36t5.65-24.32Z"/><path class="cls-1" d="M323.41,313.54c-11.23,0-23.88-.29-26-.34a6.59,6.59,0,0,1-5.55-9.89c.21-.36,21-36.43,31.53-59.1,9.32-20.09,13.23-39.9,17-59.06,3-15.35,5.89-29.85,11.33-43.32,11.75-29.09,36.06-52.77,45.32-61.08-4.59-12.92-14.56-49.63,10.84-71.31,22.78-19.45,54.55-3.93,63.88,3,8.58,6.42,56.7,49.55,58.75,51.39a6.59,6.59,0,0,1,1.74,7.3A6.42,6.42,0,0,1,526,75.38l-64.92-.67a6.6,6.6,0,0,1,.06-13.19h.07l47.37.48C491,46.34,468.94,26.86,463.85,23.05,458,18.71,433,5.37,416.43,19.47,393.37,39.16,410.72,79.63,410.9,80a6.62,6.62,0,0,1-1.85,7.75c-.32.26-32,26.56-45.11,59-5,12.31-7.71,26.22-10.62,40.94-3.75,19-8,40.52-18,62-7.46,16.07-19.54,38-26.56,50.46,11,.15,25,.23,29.45-.23,6.05-1.53,45.15-27.4,75.14-56.79a154.15,154.15,0,0,1-7.6-23.1C399.57,195.4,407.61,127,434.37,102c9.17-8.57,19.81-11.22,30.81-7.67a30.22,30.22,0,0,1,20.57,21c9.36,31.75-20.86,88.12-45.31,118-3.38,4.13-7.16,8.35-11.21,12.57,5.84,10.69,12,15.74,16.7,15.74h33.79a6.6,6.6,0,1,1,0,13.19H445.93c-9.63,0-18.72-6.88-26.34-19.33-30.79,29.39-70.77,56.71-80,57.66C336.45,313.43,330.19,313.54,323.41,313.54ZM455.78,106c-4.31,0-8.34,1.85-12.39,5.64-20.57,19.23-30.8,81.45-24.84,105.3a151.57,151.57,0,0,0,4.85,15.91c2.39-2.63,4.68-5.26,6.83-7.89C453.06,197,480.66,144.68,473.1,119c-1.85-6.25-5.65-10.12-12-12.16A17.48,17.48,0,0,0,455.78,106Z"/></g></g></svg>