<svg id="Layer_1" data-name="Layer 1" xmlns="http://www.w3.org/2000/svg" viewBox="0 0 400 400"><defs><style>.cls-1{fill:#009688;}</style></defs><title>NGHQ</title><path class="cls-1" d="M235.39,85a37.61,37.61,0,0,1-11.17,26.83,31.31,31.31,0,0,1-16.53,8.62v10.26a6,6,0,1,1-12,0V97.3a6,6,0,1,1,12,0v10.84a20,20,0,0,0,8.19-4.92A25.53,25.53,0,0,0,223.43,85a23.43,23.43,0,1,0-36.52,19.61,6,6,0,1,1-6.72,9.89A35.52,35.52,0,1,1,235.39,85Z"/><path class="cls-1" d="M154.23,309.85l19.11-41.65H226l17.7,41.38Zm21.89-37.31L161,305.49l76.11-.23-14-32.72Z"/><path class="cls-1" d="M284,265.58c-5.31-16.34-43-121.58-45.21-125.47s-7.7-11.24-16.45-11.24H177.47c-9.61,0-14.33,10.76-17.07,17.39s-39.16,104.82-43.93,118.65c-5.27,15.27,1.08,32.87,20,33.11s25.58.07,25.58.07,8.31-23,16.22-23.39c10.74-.58,34.67-.32,43,0,6.87.27,15.62,23.43,15.62,23.43h28.41C278,298.13,289.33,281.92,284,265.58Zm-67.45-37.89c-5.07,4.43-13.9,10.12-14.84,14.84S203,258,203,258s-22.73-9.47-25.57-28.09,9.77-23.37,14.84-28.09,8.5-7.89,6.3-13.58a44,44,0,0,0-5.69-10.12s22.41,9.48,27.16,22.44S221.58,223.29,216.54,227.69Z"/><path class="cls-1" d="M154.12,300.32c-4.05,0-9.81,0-17.65-.13-10.63-.13-16.42-5.22-19.41-9.47-5-7.05-5.94-17-2.64-26.52,4.84-14,41.31-112.24,44-118.76,2.52-6.09,7.74-18.74,19.08-18.74h44.86c10.14,0,16.2,8.62,18.34,12.33,2.52,4.36,40.53,110.92,45.39,125.88a29,29,0,0,1-4,25.92c-4.37,6-10.49,9.47-16.81,9.47H236.88a2.16,2.16,0,0,1-2-1.4c-4-10.54-10.43-21.9-13.68-22-8.78-.34-32.33-.56-42.75,0-4.46.24-11,13-14.29,22a2.17,2.17,0,0,1-2,1.43S159.77,300.32,154.12,300.32ZM177.47,131c-7.41,0-11.62,7.72-15.06,16.05-2.65,6.49-39.06,104.53-43.89,118.53-2.8,8.12-2,16.78,2.1,22.6,3.45,4.9,8.95,7.54,15.91,7.63,13.87.18,21.18.12,24,.1,2.31-6.05,9.5-23,17.61-23.42,10.54-.57,34.3-.34,43.16,0,7.17.28,14.31,16.52,17,23.43h26.92c4.84,0,9.81-2.87,13.29-7.68a24.6,24.6,0,0,0,3.35-22h0c-5.52-17-42.77-120.94-45-125.06-1.76-3.05-6.7-10.15-14.57-10.15ZM203,260.19a2.29,2.29,0,0,1-.84-.17c-1-.41-23.89-10.17-26.88-29.77-2.53-16.58,6.44-23.18,12.38-27.55a39.08,39.08,0,0,0,3.13-2.46c5.33-5,7.33-7.13,5.76-11.21a42.3,42.3,0,0,0-5.37-9.55,2.17,2.17,0,0,1,2.55-3.35c.95.4,23.33,10,28.35,23.69,5.3,14.53,1.12,25-4.07,29.51h0c-1.27,1.1-2.76,2.29-4.31,3.51-4.13,3.27-9.28,7.33-9.83,10.12-.72,3.54.66,11.75,1.25,14.61a2.16,2.16,0,0,1-.74,2.12A2.13,2.13,0,0,1,203,260.19Zm-4.19-76.67a40.34,40.34,0,0,1,1.79,3.95c2.69,7-1.62,11-6.61,15.72a39.33,39.33,0,0,1-3.76,3c-5.7,4.19-12.79,9.41-10.65,23.39,1.94,12.76,14.22,21.07,20.53,24.56-.58-3.71-1.14-8.89-.5-12.05.86-4.34,6.21-8.57,11.39-12.66,1.49-1.18,2.93-2.32,4.15-3.38,4.16-3.63,7.4-12.29,2.85-24.75C215.17,193.71,205.49,187.24,198.77,183.52Zm17.77,44.17h0Z"/><path class="cls-1" d="M262.34,348.44H135.91L136,329a21.53,21.53,0,0,1,21.47-21.47h83.23A21.53,21.53,0,0,1,262.21,329Z"/><path class="cls-1" d="M264.53,350.61H133.72l.15-21.67a23.66,23.66,0,0,1,23.64-23.62h83.23A23.67,23.67,0,0,1,264.38,329Zm-126.44-4.34H260.15L260,329a19.32,19.32,0,0,0-19.29-19.32H157.51a19.32,19.32,0,0,0-19.3,19.3Z"/></svg>