<svg version="1" xmlns="http://www.w3.org/2000/svg" width="2224" height="2224" viewBox="0 0 1668.000000 1668.000000"><path d="M809.5 208.6c-46.8 8.4-86.1 37.8-106.9 79.9-6.2 12.5-9.5 21.9-12.8 36.7-2 8.9-2.3 13-2.3 29.8.1 16.3.5 21.2 2.3 29.7 6.4 29.6 19.7 53.8 41.2 75.4 17.6 17.6 26.6 22.7 37.9 21.6 10.1-1.1 18.6-8.7 21.1-18.9 2.6-10.4-1.7-20.2-12.1-27.9-3.7-2.7-10.3-8.7-14.6-13.3-38-40.3-34.4-105.4 7.7-141.4 18.4-15.7 39-23.4 63-23.5 16.2-.1 29.2 2.9 43.5 10.1 9.9 4.9 14.9 8.5 23.9 17.1 12.3 11.9 19.9 23.8 25.3 39.6 13.9 40.8-1.1 89.1-35.8 115.3-5.2 3.9-21.4 12.2-23.8 12.2-.8 0-1.1-7.6-1.1-25.5 0-28-.2-29.2-6-35.9-5.1-5.8-10.3-8-18.5-8-9.9 0-16.3 3.7-22.1 12.9-1.8 2.7-1.9 6.5-2.4 68.5l-.5 65.5-45 .5-45 .5-6.8 2.7c-24.6 9.9-42 32.5-60 77.8-11.6 29.3-92.2 245.6-143.2 384.5-45.5 123.9-45.3 123.2-46.2 147.6-.4 9.1-.1 17.9.6 23 6.4 45 35 76.2 77.4 84.5 6.7 1.3 18.2 1.7 60.8 2.1l52.7.5-4.8 10.1-4.7 10.2-9.9 1.6c-35.3 5.9-63.6 28.3-76.7 60.9-5.9 14.9-6.5 20.4-7.2 76.3l-.7 50.7H1103v-45.5c0-25.7-.5-49.8-1.1-55.2-5-45.1-37.9-79.8-82.7-87.1l-10.5-1.8-4.3-9.9-4.2-10 59.6-.5c58.1-.6 59.9-.6 67-2.8 34.5-10.5 61.1-42.2 69.9-83.2 2.4-11.3 2.4-37.1-.1-48-2-9.1-10.3-33.8-31.9-95.5-58.7-167.3-138.1-386.6-155.9-431-11.7-29.1-34.2-51.3-60.8-60.1-4.8-1.6-10.4-1.9-43.5-2.4l-38-.5V502.8l9-2.3c25.7-6.5 49-21 67.3-41.8 54.6-62 51.4-155.4-7.1-211.4-21-20-48.7-34-76.6-38.7-11.9-2-38.4-2-49.6 0zM847 776.3c28 17.5 48.8 37.3 58.4 55.7 10.5 20.2 15.2 52.8 10.8 74.3-2.4 11.6-8.2 24.1-14.3 31.1-2.4 2.7-12.1 11.2-21.7 18.8-44.5 35.8-50.5 44.9-48.9 74.8.4 6.4 1.1 15.1 1.7 19.4.6 4.3 1 8 .8 8.2-.6.6-19.8-11.8-28.8-18.5-12-9-30.5-28-37.2-38.1-14.4-21.9-19.8-39.5-19.8-65.1 0-31.7 11-50.9 43-74.9 23.7-17.8 38.6-33.1 44.9-46 3.4-7.1 3.6-8 3.6-17.5-.1-10.4-.8-13.4-6.9-26.9l-2.7-5.8 3.8 2.3c2.1 1.2 8.1 4.9 13.3 8.2zm75.8 378.6c6.7 1.3 15.7 11 26 27.9 5.4 8.8 39.8 88 38.7 89-.4.4-71.3.9-157.7 1.1l-157 .3.7-2.1c.4-1.2 3.9-9.3 7.9-17.9 4-8.6 11.7-25.4 17.1-37.2 13.5-29.4 22.9-44.6 33.9-54.8 2.5-2.3 5.8-4.8 7.4-5.4 1.5-.6 11-1.5 21.2-1.9 23.8-.9 156.1-.1 161.8 1zm94.7 137.6c32.9 5.8 58.8 31 64.9 63.1 1.1 5.7 1.6 18.8 2.1 47.6l.6 39.8H576.9l.3-42.3c.4-39.3.6-42.7 2.5-49.8 8.6-30.9 34.8-54.3 65.8-58.8 3.3-.5 86.4-.9 184.6-1 156.5-.1 179.7.1 187.4 1.4z"/></svg>