<svg id="Layer_1" data-name="Layer 1" xmlns="http://www.w3.org/2000/svg" viewBox="0 0 1024 218"><defs><style>.cls-1{fill:#fff;}</style></defs><title>NGHQ</title><path class="cls-1" d="M72.6,32.21H88.66l31.66,86.47h.46q-.23-3-.61-6.73c-.25-2.47-.48-5.29-.69-8.44s-.38-6.72-.53-10.7-.23-8.48-.23-13.47V32.21h17.74V161.42H120.25L88.74,77.22h-.62c.16,2.27.36,4.73.62,7.38s.48,5.76.68,9.34.39,7.76.54,12.52.23,10.43.23,17v38H72.6Z"/><path class="cls-1" d="M168.87,54.08a10.54,10.54,0,0,1-7.91-3c-1.94-2-2.9-4.89-2.9-8.72a16.46,16.46,0,0,1,.75-5.35,8,8,0,0,1,5.55-5.38,15.63,15.63,0,0,1,4.58-.61q5.38,0,8.17,2.7t2.79,8.64q0,5.52-2.83,8.61C175.19,53.05,172.45,54.08,168.87,54.08Z"/><path class="cls-1" d="M421.86,54.08a10.54,10.54,0,0,1-7.91-3c-1.94-2-2.91-4.89-2.91-8.72A16.43,16.43,0,0,1,411.8,37a8,8,0,0,1,5.55-5.38,15.58,15.58,0,0,1,4.58-.61c3.58,0,6.31.9,8.17,2.7s2.79,4.67,2.79,8.64q0,5.52-2.83,8.61C428.18,53.05,425.44,54.08,421.86,54.08Z"/><rect class="cls-1" x="159.3" y="57.25" width="19.35" height="104.17"/><path class="cls-1" d="M216.31,168.53q0,6.74,2.52,9.54c1.69,1.86,4.29,2.8,7.81,2.8a13.36,13.36,0,0,0,4.13-.65,7.86,7.86,0,0,0,3.48-2.34,13,13,0,0,0,2.41-4.73,27.58,27.58,0,0,0,.91-7.79V148.94a23,23,0,0,1-6.69,5.71A19.85,19.85,0,0,1,220.75,157a29,29,0,0,1-4.13-.34,16.61,16.61,0,0,1-4.9-1.55,18.11,18.11,0,0,1-5-3.67,22.58,22.58,0,0,1-4.36-6.61,45.4,45.4,0,0,1-3.1-10.41,82.32,82.32,0,0,1-1.18-15.09V92a75,75,0,0,1,1.18-14.41,42.57,42.57,0,0,1,3.1-10,19.93,19.93,0,0,1,4.4-6.27,19.67,19.67,0,0,1,5.05-3.45,16.92,16.92,0,0,1,5-1.47,36.17,36.17,0,0,1,4.36-.3,21.2,21.2,0,0,1,6.76,1,17.68,17.68,0,0,1,5.13,2.61,18.19,18.19,0,0,1,3.71,3.67,30.87,30.87,0,0,1,2.6,4.08l1.76-10.29h15.07v100a67.26,67.26,0,0,1-1.69,15.69,33.55,33.55,0,0,1-5.27,12,23.91,23.91,0,0,1-9.14,7.6,30.64,30.64,0,0,1-13.27,2.65,50.72,50.72,0,0,1-9.79-.91,21.84,21.84,0,0,1-8-3.22,16.06,16.06,0,0,1-5.43-6.27,22.63,22.63,0,0,1-2-10.1,19.38,19.38,0,0,1,.22-2.65,25.13,25.13,0,0,1,.77-3.41Zm11-26.32a8.53,8.53,0,0,0,3.41-.65,9.55,9.55,0,0,0,2.67-1.7,11.77,11.77,0,0,0,2.07-2.42,18.42,18.42,0,0,0,1.49-2.8v-57a16.76,16.76,0,0,0-3.86-5.41A8.31,8.31,0,0,0,227.25,70a9.83,9.83,0,0,0-3.9.76,6.87,6.87,0,0,0-3.06,2.84,17.14,17.14,0,0,0-2,5.75,50.83,50.83,0,0,0-.73,9.49v34.27a51.38,51.38,0,0,0,.73,9.53,17.57,17.57,0,0,0,2,5.83,7,7,0,0,0,3.1,2.91A9.59,9.59,0,0,0,227.32,142.21Z"/><path class="cls-1" d="M278.07,23.81h19.35V48.32l-1,17.86a23.56,23.56,0,0,1,4.62-4.88,24.61,24.61,0,0,1,5.13-3.1,23.14,23.14,0,0,1,5.35-1.67,30,30,0,0,1,5.4-.49q9.24,0,14.26,6.39t5,19.18v79.81H316.85V82.29c0-4.59-.72-7.78-2.14-9.57A7.55,7.55,0,0,0,308.44,70,10.72,10.72,0,0,0,302.58,72a18.08,18.08,0,0,0-5.16,5.34v84.12H278.07Z"/><path class="cls-1" d="M360,70.87h-8.18V57.25h9.87l3.9-27h13.76v27H396.2V70.87H379.37v66.27a18.94,18.94,0,0,0,.65,5.48,8.17,8.17,0,0,0,1.8,3.26,5.58,5.58,0,0,0,2.68,1.55,13.44,13.44,0,0,0,3.21.38,16.58,16.58,0,0,0,5-.69,18.58,18.58,0,0,0,4.17-1.89v10.59a16.1,16.1,0,0,1-3.63,3.33,20.76,20.76,0,0,1-4,2.08,19.08,19.08,0,0,1-4.21,1.1,30.2,30.2,0,0,1-4.2.3,28.31,28.31,0,0,1-7.8-1.06,14.77,14.77,0,0,1-6.66-4,21.09,21.09,0,0,1-4.63-8.29A45.8,45.8,0,0,1,360,135.47Z"/><rect class="cls-1" x="412.29" y="57.25" width="19.35" height="104.17"/><path class="cls-1" d="M452.41,57.25h14.92l1.76,11.12v.08A29.49,29.49,0,0,1,474,62.51a25.2,25.2,0,0,1,5.47-3.82,23.1,23.1,0,0,1,5.78-2,29.19,29.19,0,0,1,5.85-.6q9.25,0,14.26,6.39t5,19.18v79.81H491V82.29c0-4.59-.72-7.78-2.14-9.57A7.55,7.55,0,0,0,482.63,70a10.44,10.44,0,0,0-5.78,1.9,18.11,18.11,0,0,0-5.08,5.22v84.27H452.41Z"/><path class="cls-1" d="M547.75,168.53q0,6.74,2.53,9.54c1.68,1.86,4.28,2.8,7.8,2.8a13.36,13.36,0,0,0,4.13-.65,7.86,7.86,0,0,0,3.48-2.34,12.85,12.85,0,0,0,2.41-4.73,27.54,27.54,0,0,0,.92-7.79V148.94a23.22,23.22,0,0,1-6.7,5.71A19.83,19.83,0,0,1,552.19,157a29.13,29.13,0,0,1-4.13-.34,16.7,16.7,0,0,1-4.9-1.55,18.11,18.11,0,0,1-5-3.67,22.78,22.78,0,0,1-4.36-6.61,45.91,45.91,0,0,1-3.1-10.41,82.32,82.32,0,0,1-1.18-15.09V92a75,75,0,0,1,1.18-14.41,43,43,0,0,1,3.1-10,20.09,20.09,0,0,1,4.4-6.27,19.84,19.84,0,0,1,5-3.45,17,17,0,0,1,5-1.47,36.17,36.17,0,0,1,4.36-.3,21.26,21.26,0,0,1,6.77,1,17.75,17.75,0,0,1,5.12,2.61,18.19,18.19,0,0,1,3.71,3.67,29.87,29.87,0,0,1,2.6,4.08l1.76-10.29h15.07v100A66.72,66.72,0,0,1,586,172.88a33.55,33.55,0,0,1-5.27,12,23.91,23.91,0,0,1-9.14,7.6,30.64,30.64,0,0,1-13.27,2.65,50.8,50.8,0,0,1-9.79-.91,21.72,21.72,0,0,1-8-3.22,15.9,15.9,0,0,1-5.43-6.27,22.48,22.48,0,0,1-2-10.1,18.1,18.1,0,0,1,.23-2.65,23.6,23.6,0,0,1,.76-3.41Zm11-26.32a8.48,8.48,0,0,0,3.4-.65,9.6,9.6,0,0,0,2.68-1.7,11.73,11.73,0,0,0,2.06-2.42,18.42,18.42,0,0,0,1.49-2.8v-57a16.76,16.76,0,0,0-3.86-5.41A8.29,8.29,0,0,0,558.69,70a9.83,9.83,0,0,0-3.9.76,7,7,0,0,0-3.06,2.84,17.36,17.36,0,0,0-2,5.75,51,51,0,0,0-.72,9.49v34.27a51.49,51.49,0,0,0,.72,9.53,17.8,17.8,0,0,0,2,5.83,7.08,7.08,0,0,0,3.1,2.91A9.6,9.6,0,0,0,558.77,142.21Z"/><path class="cls-1" d="M688,23.81H707.3V161.42H688Z"/><path class="cls-1" d="M754.46,162.56a27.61,27.61,0,0,1-12.05-2.5,22.08,22.08,0,0,1-8.83-7.79,39,39,0,0,1-5.43-13.58,93,93,0,0,1-1.84-19.94V99.09a83.91,83.91,0,0,1,1.49-17,50.13,50.13,0,0,1,3.9-11.88,25,25,0,0,1,5.58-7.6,25.46,25.46,0,0,1,6.54-4.27,23.7,23.7,0,0,1,6.7-1.89,49.27,49.27,0,0,1,6.15-.42,32.6,32.6,0,0,1,10,1.55,20.42,20.42,0,0,1,8.49,5.3,26.3,26.3,0,0,1,5.85,10,48.13,48.13,0,0,1,2.18,15.66q0,3.18-.19,6.43c-.12,2.17-.29,4.3-.49,6.39s-.48,4.13-.81,6.09-.67,3.79-1,5.45h-35v10.59a102.14,102.14,0,0,0,.53,11.46,26.25,26.25,0,0,0,1.8,7.49,8.52,8.52,0,0,0,3.44,4.09,10.9,10.9,0,0,0,5.47,1.25,8.67,8.67,0,0,0,3.44-.72,7.4,7.4,0,0,0,3-2.39,13.07,13.07,0,0,0,2-4.42,26,26,0,0,0,.77-6.85v-3.25H782.3v4q0,14.82-7.15,21.6T754.46,162.56Zm10.7-62.49c.05-.56.11-1.3.16-2.23s.09-1.91.11-2.92,0-2,0-3V89.4q0-10.29-2.45-14.83A7.83,7.83,0,0,0,755.76,70a8.32,8.32,0,0,0-4.44,1.18,8.4,8.4,0,0,0-3.14,3.93,27.8,27.8,0,0,0-1.83,7.3,86.36,86.36,0,0,0-.61,11.27v6.36Z"/><path class="cls-1" d="M802.37,32.21h19.81V86.3h23.48V32.21h19.81V161.42H845.66V101.73H822.18v59.69H802.37Z"/><path class="cls-1" d="M911.17,161.8a30.23,30.23,0,0,1-8.72-3.18,24,24,0,0,1-7.88-7.18,39.66,39.66,0,0,1-5.69-12.6q-2.19-7.76-2.18-19.48V73.59a76.89,76.89,0,0,1,1.56-16.68,44.94,44.94,0,0,1,4.17-11.65,25.25,25.25,0,0,1,12.89-11.8,28.33,28.33,0,0,1,7.23-1.93,53.79,53.79,0,0,1,6.65-.46,55.74,55.74,0,0,1,6.47.42,28.19,28.19,0,0,1,7.11,1.82,25.79,25.79,0,0,1,6.92,4.16,25.47,25.47,0,0,1,6,7.49,45,45,0,0,1,4.17,11.72,78.9,78.9,0,0,1,1.56,16.91v45.77a70.3,70.3,0,0,1-2.14,18.8,41,41,0,0,1-5.54,12.44,25.78,25.78,0,0,1-7.58,7.38,29,29,0,0,1-8.29,3.52v1.13a16.78,16.78,0,0,0,.88,6,7.55,7.55,0,0,0,2.6,3.52,9.88,9.88,0,0,0,4.28,1.66,37,37,0,0,0,5.93.42h2.14c.71,0,1.38,0,2-.08v10.59a31.44,31.44,0,0,1-7,2.27,37.8,37.8,0,0,1-7,.61c-1.07,0-2.32-.07-3.75-.19a21.17,21.17,0,0,1-4.43-.91,20.41,20.41,0,0,1-4.48-2,14.28,14.28,0,0,1-3.94-3.63,18.7,18.7,0,0,1-2.83-5.71,27.86,27.86,0,0,1-1.07-8.25Zm8-14a12.2,12.2,0,0,0,5.09-1,8,8,0,0,0,3.59-3.4A19.65,19.65,0,0,0,930,137a56.71,56.71,0,0,0,.73-10V68.22A61,61,0,0,0,930,57.86a21.11,21.11,0,0,0-2.14-6.7,8.28,8.28,0,0,0-3.59-3.59,11.46,11.46,0,0,0-5.09-1.06,11.89,11.89,0,0,0-5.2,1.06,8.44,8.44,0,0,0-3.67,3.59,20.57,20.57,0,0,0-2.18,6.7,62,62,0,0,0-.73,10.36V127a57.68,57.68,0,0,0,.73,10,19.16,19.16,0,0,0,2.18,6.39,8.12,8.12,0,0,0,3.67,3.4A12.66,12.66,0,0,0,919.2,147.81Z"/><path class="cls-1" d="M653.7,39.35a17.37,17.37,0,0,1-5.16,12.4,14.48,14.48,0,0,1-7.64,4v4.74a2.77,2.77,0,0,1-5.53,0V45.05a2.77,2.77,0,0,1,5.53,0v5a9.15,9.15,0,0,0,3.78-2.27,11.79,11.79,0,0,0,3.49-8.44,10.83,10.83,0,1,0-16.87,9.07A2.76,2.76,0,0,1,628.19,53,16.42,16.42,0,1,1,653.7,39.35Z"/><path class="cls-1" d="M616.19,143.28,625,124h24.33l8.18,19.12ZM626.31,126l-7,15.23,35.17-.11L648,126Z"/><path class="cls-1" d="M676.16,122.82c-2.46-7.55-19.85-56.19-20.89-58s-3.56-5.2-7.61-5.2H626.93c-4.44,0-6.62,5-7.88,8s-18.1,48.44-20.31,54.83c-2.43,7,.5,15.19,9.26,15.3s11.82,0,11.82,0,3.84-10.61,7.5-10.81c5-.27,16-.14,19.85,0,3.18.13,7.22,10.83,7.22,10.83h13.13C673.37,137.86,678.63,130.37,676.16,122.82ZM645,105.31c-2.35,2-6.43,4.67-6.86,6.86s.58,7.15.58,7.15-10.5-4.38-11.81-13,4.51-10.8,6.85-13,3.93-3.65,2.92-6.28A20.3,20.3,0,0,0,634,82.41s10.35,4.37,12.55,10.36S647.32,103.28,645,105.31Z"/><path class="cls-1" d="M616.14,138.87c-1.87,0-4.53,0-8.15-.06-4.91-.06-7.59-2.41-9-4.38-2.29-3.25-2.75-7.83-1.23-12.25,2.24-6.48,19.09-51.87,20.33-54.88,1.16-2.82,3.57-8.66,8.81-8.66h20.73c4.69,0,7.49,4,8.48,5.69,1.16,2,18.73,51.26,21,58.18a13.36,13.36,0,0,1-1.83,12,9.76,9.76,0,0,1-7.76,4.37H654.39a1,1,0,0,1-.94-.65c-1.84-4.87-4.82-10.12-6.32-10.17-4.06-.16-14.94-.26-19.76,0-2.06.12-5.1,6-6.6,10.15a1,1,0,0,1-.92.66S618.75,138.87,616.14,138.87Zm10.79-78.22c-3.42,0-5.37,3.56-7,7.41-1.22,3-18.05,48.3-20.28,54.78-1.29,3.75-.92,7.75,1,10.44A8.68,8.68,0,0,0,608,136.8c6.41.09,9.79.06,11.11,0,1.07-2.79,4.39-10.62,8.14-10.82,4.87-.26,15.85-.16,20,0,3.31.13,6.61,7.63,7.86,10.82h12.45a7.89,7.89,0,0,0,6.14-3.54,11.36,11.36,0,0,0,1.54-10.18h0c-2.54-7.84-19.76-55.89-20.8-57.79-.82-1.41-3.1-4.69-6.74-4.69Zm11.78,59.67a1,1,0,0,1-.38-.07c-.46-.19-11-4.7-12.43-13.76-1.17-7.66,3-10.71,5.72-12.73a16.37,16.37,0,0,0,1.45-1.14c2.46-2.32,3.39-3.29,2.66-5.18A20,20,0,0,0,633.25,83a1,1,0,0,1,1.18-1.55c.44.19,10.78,4.62,13.1,11,2.45,6.71.52,11.54-1.88,13.64h0c-.59.51-1.28,1.05-2,1.62-1.91,1.51-4.29,3.39-4.55,4.67-.33,1.64.31,5.43.58,6.76a1,1,0,0,1-1,1.2Zm-1.93-35.43a18.29,18.29,0,0,1,.82,1.83c1.25,3.22-.75,5.09-3.05,7.27a21.62,21.62,0,0,1-1.74,1.39c-2.63,1.93-5.91,4.34-4.92,10.81.9,5.89,6.57,9.73,9.49,11.34a18.54,18.54,0,0,1-.23-5.56c.39-2,2.87-4,5.26-5.86.69-.54,1.35-1.07,1.92-1.56,1.92-1.67,3.41-5.67,1.31-11.43C644.36,89.6,639.88,86.61,636.78,84.89ZM645,105.31h0Z"/><path class="cls-1" d="M666.15,161.11H607.73l.06-9a9.94,9.94,0,0,1,9.92-9.91h38.46a9.94,9.94,0,0,1,9.92,9.91Z"/><path class="cls-1" d="M667.16,162.11H606.71l.07-10a10.94,10.94,0,0,1,10.93-10.92h38.46a10.94,10.94,0,0,1,10.92,10.93Zm-58.42-2h56.4l0-8a8.93,8.93,0,0,0-8.92-8.92H617.71a8.93,8.93,0,0,0-8.92,8.92Z"/></svg>